{"glyphs":{"0":{"ha":792,"x_min":76,"x_max":715,"o":"m 394 671 q 300 649 340 671 q 233 588 260 628 q 194 494 207 549 q 181 374 181 440 q 194 251 181 306 q 233 157 207 196 q 300 97 260 118 q 394 75 340 75 q 558 156 504 75 q 613 374 613 238 q 599 494 613 440 q 559 588 586 549 q 491 649 532 628 q 394 671 450 671 m 394 758 q 535 730 475 758 q 636 651 596 701 q 696 529 676 600 q 715 374 715 458 q 696 218 715 289 q 636 96 676 147 q 535 16 596 44 q 394 -12 475 -12 q 254 16 314 -12 q 155 96 194 44 q 96 218 115 147 q 76 374 76 289 q 96 529 76 458 q 155 651 115 600 q 254 730 194 701 q 394 758 314 758 z "},"1":{"ha":454,"x_min":69,"x_max":311,"o":"m 311 744 l 311 0 l 213 0 l 213 624 q 142 588 178 600 q 69 574 106 576 l 69 672 q 153 696 113 679 q 229 744 193 713 l 311 744 z "},"2":{"ha":794,"x_min":90,"x_max":689,"o":"m 190 93 l 686 93 l 686 0 l 90 0 l 90 113 q 141 281 90 225 q 296 361 192 338 l 442 396 q 551 447 515 413 q 586 539 586 481 q 540 630 586 592 q 410 668 494 668 q 276 635 328 668 q 217 536 225 603 l 106 536 q 192 700 113 642 q 407 758 271 758 q 522 740 469 758 q 611 690 574 721 q 669 618 649 658 q 689 533 689 578 q 638 394 689 444 q 485 321 588 344 l 329 283 q 222 228 254 265 q 190 140 190 190 l 190 93 z "},"3":{"ha":774,"x_min":40,"x_max":678,"o":"m 356 758 q 473 741 419 758 q 564 693 526 724 q 622 621 601 663 q 643 529 643 579 q 603 415 643 458 q 492 346 564 372 q 627 255 576 321 q 678 101 678 189 q 654 -3 678 44 q 588 -84 631 -50 q 486 -137 546 -118 q 354 -157 426 -157 q 233 -140 290 -157 q 133 -88 176 -122 q 65 -2 90 -54 q 40 121 40 50 l 142 121 q 203 -24 144 22 q 354 -69 263 -69 q 443 -56 403 -69 q 513 -19 483 -43 q 558 37 542 4 q 574 107 574 69 q 560 177 574 143 q 519 237 547 211 q 448 278 492 263 q 344 293 404 293 l 263 293 l 263 374 l 317 374 q 481 410 421 374 q 540 521 540 447 q 492 629 540 588 q 357 671 444 671 q 238 640 288 671 q 172 539 188 610 l 67 539 q 101 640 75 599 q 165 708 126 682 q 251 747 203 735 q 356 758 300 758 z "},"4":{"ha":769,"x_min":35,"x_max":735,"o":"m 585 751 l 585 163 l 735 163 l 735 76 l 585 76 l 585 -144 l 485 -144 l 485 76 l 35 76 l 35 154 l 492 751 l 585 751 m 149 154 l 488 154 l 488 590 l 149 154 z "},"5":{"ha":786,"x_min":92,"x_max":696,"o":"m 656 750 l 656 658 l 278 658 l 254 407 q 319 417 286 414 q 385 421 351 421 q 613 347 529 421 q 696 144 696 274 q 672 24 696 79 q 603 -71 647 -31 q 500 -134 560 -111 q 369 -157 440 -157 q 264 -140 314 -157 q 176 -92 214 -124 q 115 -12 138 -60 q 92 99 92 36 l 190 99 q 240 -24 190 18 q 372 -65 289 -65 q 461 -49 421 -65 q 531 -6 501 -33 q 576 61 560 22 q 593 144 593 100 q 536 285 593 233 q 367 338 479 338 l 146 338 l 185 750 l 656 750 z "},"6":{"ha":776,"x_min":60,"x_max":694,"o":"m 578 653 q 529 755 567 718 q 421 792 492 792 q 312 765 360 792 q 231 688 264 738 q 180 565 197 638 q 163 403 163 493 q 164 340 163 375 q 169 276 165 306 q 196 393 174 346 q 252 469 218 440 q 330 510 286 497 q 419 522 374 522 q 528 502 478 522 q 615 446 578 482 q 674 360 653 410 q 694 250 694 310 q 674 141 694 190 q 614 57 653 92 q 522 3 575 22 q 403 -15 468 -15 q 261 18 325 -15 q 153 110 197 51 q 84 247 108 168 q 60 418 60 326 q 85 614 60 528 q 156 760 110 700 q 268 851 201 819 q 418 883 335 883 q 604 820 533 883 q 686 653 675 757 l 578 653 m 401 431 q 327 417 361 431 q 268 380 293 404 q 228 324 243 356 q 214 254 214 292 q 268 124 214 171 q 403 78 322 78 q 536 124 483 78 q 589 254 589 171 q 536 384 589 338 q 401 431 483 431 z "},"7":{"ha":647,"x_min":33,"x_max":622,"o":"m 622 758 l 622 672 l 206 -133 l 81 -133 l 514 668 l 33 668 l 33 758 l 622 758 z "},"8":{"ha":847,"x_min":78,"x_max":771,"o":"m 422 883 q 549 865 490 883 q 649 815 607 847 q 714 738 690 782 q 738 643 738 694 q 725 574 738 607 q 688 513 713 540 q 628 467 664 486 q 544 443 592 449 l 574 432 q 720 347 669 396 q 771 215 771 299 q 679 48 771 111 q 422 -15 588 -15 q 284 3 347 -15 q 175 55 221 22 q 103 133 129 88 q 78 232 78 178 q 133 372 78 318 q 281 442 189 426 q 219 474 250 454 q 163 519 188 493 q 122 579 138 546 q 107 654 107 613 q 128 747 107 704 q 190 819 150 789 q 289 866 231 849 q 422 883 347 883 m 378 404 q 235 347 289 394 q 182 240 182 300 q 200 170 182 200 q 251 119 218 140 q 327 88 283 99 q 422 78 371 78 q 601 114 536 78 q 665 213 665 150 q 630 292 665 260 q 536 344 594 324 l 378 404 m 213 651 q 244 574 213 603 q 335 524 276 544 l 439 483 q 515 497 481 485 q 576 528 550 508 q 617 577 603 549 q 632 639 632 606 q 617 700 632 672 q 574 749 601 728 q 508 781 546 769 q 422 792 469 792 q 339 781 378 792 q 272 750 300 769 q 228 706 244 731 q 213 651 213 681 z "},"9":{"ha":788,"x_min":71,"x_max":704,"o":"m 363 758 q 507 724 443 758 q 615 630 571 690 q 681 488 658 569 q 704 313 704 407 q 683 116 704 203 q 618 -31 661 29 q 511 -124 575 -92 q 364 -157 447 -157 q 249 -137 301 -157 q 158 -81 196 -117 q 99 6 119 -44 q 78 114 78 56 l 183 114 q 231 -17 185 32 q 364 -65 276 -65 q 472 -38 426 -65 q 546 40 517 -11 q 589 165 575 92 q 603 328 603 238 q 601 385 603 358 q 596 442 600 411 q 519 275 585 335 q 351 215 453 215 q 242 235 293 215 q 153 292 192 256 q 93 379 115 329 q 71 489 71 429 q 92 598 71 549 q 151 683 113 647 q 244 738 190 718 q 363 758 297 758 m 363 668 q 227 619 278 668 q 176 489 176 571 q 228 356 176 404 q 363 307 279 307 q 439 321 404 307 q 499 360 474 335 q 537 418 524 385 q 550 489 550 451 q 498 619 550 571 q 363 668 446 668 z "}," ":{"ha":325,"x_min":0,"x_max":0,"o":""},",":{"ha":322,"x_min":68,"x_max":256,"o":"m 168 131 q 232 100 208 131 q 256 24 256 69 q 227 -72 256 -22 q 140 -151 199 -121 l 68 -114 q 132 -69 106 -94 q 165 -7 158 -43 q 117 13 136 -4 q 97 60 97 31 q 117 110 97 89 q 168 131 136 131 z "},".":{"ha":274,"x_min":63,"x_max":213,"o":"m 135 138 q 190 115 168 138 q 213 61 213 93 q 190 8 213 29 q 135 -12 168 -12 q 83 8 103 -12 q 63 61 63 29 q 83 115 63 93 q 135 138 103 138 z "},";":{"ha":313,"x_min":57,"x_max":244,"o":"m 157 131 q 221 100 197 131 q 244 24 244 69 q 216 -72 244 -22 q 129 -151 188 -121 l 57 -114 q 121 -69 94 -94 q 154 -7 147 -43 q 106 13 125 -4 q 86 60 86 31 q 106 110 86 89 q 157 131 125 131 m 161 667 q 217 644 194 667 q 239 590 239 622 q 217 538 239 558 q 161 517 194 517 q 109 538 129 517 q 89 590 89 558 q 109 644 89 622 q 161 667 129 667 z "},":":{"ha":296,"x_min":74,"x_max":224,"o":"m 146 667 q 201 645 178 667 q 224 592 224 624 q 201 539 224 560 q 146 518 178 518 q 94 539 114 518 q 74 592 74 560 q 94 645 74 624 q 146 667 114 667 m 146 138 q 201 115 178 138 q 224 61 224 93 q 201 8 224 29 q 146 -12 178 -12 q 94 8 114 -12 q 74 61 74 29 q 94 115 74 93 q 146 138 114 138 z "},"‘":{"ha":278,"x_min":50,"x_max":239,"o":"m 138 625 q 74 656 99 625 q 50 732 50 686 q 80 827 50 779 q 168 907 110 875 l 239 868 q 174 822 200 849 q 140 763 149 796 q 190 742 171 760 q 210 696 210 725 q 190 646 210 667 q 138 625 169 625 z "},"’":{"ha":278,"x_min":50,"x_max":239,"o":"m 151 907 q 215 877 190 907 q 239 801 239 847 q 209 705 239 753 q 121 625 179 657 l 50 664 q 115 710 89 683 q 149 769 140 736 q 100 790 119 772 q 81 838 81 807 q 100 886 81 865 q 151 907 119 907 z "},"'":{"ha":225,"x_min":63,"x_max":163,"o":"m 163 989 l 149 675 l 76 675 l 63 989 l 163 989 z "},"-":{"ha":526,"x_min":76,"x_max":450,"o":"m 450 467 l 450 379 l 76 379 l 76 467 l 450 467 z "},"–":{"ha":642,"x_min":76,"x_max":565,"o":"m 565 467 l 565 379 l 76 379 l 76 467 l 565 467 z "},"—":{"ha":994,"x_min":76,"x_max":919,"o":"m 919 467 l 919 379 l 76 379 l 76 467 l 919 467 z "},"!":{"ha":381,"x_min":118,"x_max":268,"o":"m 243 894 l 232 244 l 153 244 l 142 894 l 243 894 m 192 138 q 246 115 224 138 q 268 61 268 93 q 246 8 268 29 q 192 -12 224 -12 q 139 8 160 -12 q 118 61 118 29 q 139 115 118 93 q 192 138 160 138 z "},"?":{"ha":692,"x_min":47,"x_max":624,"o":"m 344 893 q 463 875 411 893 q 551 826 515 857 q 605 753 586 794 q 624 667 624 713 q 588 548 624 596 q 472 456 551 500 q 410 417 435 435 q 372 379 386 399 q 351 335 357 360 q 346 279 346 311 l 346 228 l 254 228 l 254 286 q 260 363 254 331 q 283 419 267 394 q 324 465 299 444 q 390 508 350 486 q 451 545 426 528 q 492 581 476 563 q 514 619 507 599 q 521 668 521 640 q 476 765 521 726 q 349 803 431 803 q 215 769 261 803 q 154 672 168 735 l 47 672 q 135 833 58 772 q 344 893 213 893 m 304 135 q 360 113 338 135 q 383 60 383 92 q 360 8 383 29 q 304 -12 338 -12 q 249 8 271 -12 q 228 60 228 29 q 249 113 228 92 q 304 135 271 135 z "},"/":{"ha":556,"x_min":85,"x_max":536,"o":"m 432 1014 l 536 1014 l 188 -100 l 85 -100 l 432 1014 z "},"\\":{"ha":556,"x_min":19,"x_max":471,"o":"m 19 1014 l 122 1014 l 471 -100 l 367 -100 l 19 1014 z "},"+":{"ha":829,"x_min":76,"x_max":753,"o":"m 463 717 l 463 403 l 753 403 l 753 315 l 463 315 l 463 0 l 365 0 l 365 315 l 76 315 l 76 403 l 365 403 l 365 717 l 463 717 z "},"−":{"ha":671,"x_min":110,"x_max":561,"o":"m 561 399 l 561 311 l 110 311 l 110 399 l 561 399 z "},"=":{"ha":671,"x_min":110,"x_max":561,"o":"m 561 265 l 561 178 l 110 178 l 110 265 l 561 265 m 561 540 l 561 451 l 110 451 l 110 540 l 561 540 z "},"(":{"ha":426,"x_min":85,"x_max":343,"o":"m 343 833 q 221 603 257 719 q 185 363 185 488 q 221 120 185 236 q 343 -110 257 4 l 269 -154 q 131 94 178 -35 q 85 363 85 224 q 131 628 85 500 q 269 878 178 757 l 343 833 z "},")":{"ha":422,"x_min":85,"x_max":344,"o":"m 157 878 q 297 628 249 757 q 344 363 344 500 q 297 94 344 224 q 157 -154 249 -35 l 85 -110 q 208 120 171 4 q 244 363 244 236 q 208 603 244 488 q 85 833 171 719 l 157 878 z "},"[":{"ha":438,"x_min":140,"x_max":403,"o":"m 140 1010 l 403 1010 l 403 924 l 238 924 l 238 -44 l 403 -44 l 403 -132 l 140 -132 l 140 1010 z "},"]":{"ha":392,"x_min":-11,"x_max":251,"o":"m 251 -132 l -11 -132 l -11 -44 l 154 -44 l 154 924 l -11 924 l -11 1010 l 251 1010 l 251 -132 z "},"_":{"ha":1004,"x_min":76,"x_max":929,"o":"m 76 -69 l 929 -69 l 929 -156 l 76 -156 l 76 -69 z "},"@":{"ha":1243,"x_min":68,"x_max":1172,"o":"m 743 329 q 726 408 743 381 q 664 436 708 436 q 598 421 632 436 q 536 376 564 406 q 490 306 508 347 q 471 215 471 265 q 507 106 471 146 q 597 65 543 65 q 683 99 650 65 q 743 190 715 132 l 743 329 m 672 788 q 872 753 781 788 q 1031 659 964 719 q 1135 516 1097 599 q 1172 338 1172 433 q 1149 194 1172 258 q 1088 83 1126 129 q 997 13 1049 38 q 889 -12 946 -12 q 794 15 831 -12 q 747 97 758 42 q 684 18 722 49 q 581 -12 646 -12 q 503 4 540 -12 q 435 51 465 21 q 386 122 404 81 q 368 214 368 164 q 393 335 368 279 q 460 433 418 392 q 555 497 501 474 q 665 521 608 521 q 792 473 743 521 q 840 331 840 425 l 840 135 q 896 65 840 65 q 956 83 925 65 q 1011 135 986 101 q 1053 219 1036 169 q 1069 333 1069 269 q 1042 481 1069 414 q 962 597 1014 549 q 837 673 910 646 q 672 700 764 700 q 478 665 569 700 q 319 569 388 631 q 212 422 251 507 q 172 236 172 338 q 212 43 172 128 q 325 -99 251 -42 q 502 -185 399 -156 q 733 -215 606 -215 l 733 -299 q 467 -262 589 -299 q 256 -155 344 -225 q 118 17 168 -85 q 68 251 68 119 q 115 467 68 368 q 244 636 163 565 q 435 747 325 707 q 672 788 546 788 z "},"\"":{"ha":418,"x_min":39,"x_max":379,"o":"m 149 946 l 133 642 l 54 642 l 39 946 l 149 946 m 379 946 l 364 642 l 285 642 l 269 946 l 379 946 z "},"#":{"ha":867,"x_min":74,"x_max":810,"o":"m 526 238 l 307 238 l 288 43 l 192 43 l 211 238 l 74 238 l 79 310 l 219 310 l 246 558 l 106 558 l 113 631 l 253 631 l 274 822 l 369 822 l 349 631 l 568 631 l 589 822 l 683 822 l 663 631 l 810 631 l 801 558 l 656 558 l 629 310 l 776 310 l 768 238 l 621 238 l 601 43 l 506 43 l 526 238 m 315 310 l 533 310 l 560 558 l 342 558 l 315 310 z "},"$":{"ha":872,"x_min":104,"x_max":771,"o":"m 557 457 q 713 376 654 429 q 771 229 771 322 q 751 142 771 183 q 692 69 731 101 q 600 15 654 36 q 478 -10 546 -6 l 478 -144 l 394 -144 l 394 -11 q 282 13 335 -7 q 190 67 229 33 q 127 151 150 101 q 104 265 104 200 l 200 265 q 254 131 203 181 q 394 71 306 82 l 394 415 l 351 431 q 182 519 236 467 q 128 658 128 571 q 147 744 128 706 q 202 811 167 782 q 287 858 238 840 q 394 881 336 875 l 394 1008 l 478 1008 l 478 882 q 656 817 586 874 q 739 658 726 761 l 642 658 q 591 758 632 721 q 478 803 550 796 l 478 481 l 557 457 m 667 226 q 633 317 667 281 q 535 372 599 353 l 478 389 l 478 71 q 618 126 569 81 q 667 226 667 171 m 229 656 q 260 573 229 603 q 357 522 292 543 l 394 508 l 394 801 q 272 751 314 790 q 229 656 229 711 z "},"%":{"ha":1006,"x_min":85,"x_max":922,"o":"m 261 886 q 328 874 296 886 q 385 836 360 861 q 424 774 410 811 q 439 688 439 736 q 424 601 439 639 q 385 539 410 564 q 328 501 360 514 q 261 489 296 489 q 194 501 226 489 q 138 539 163 514 q 99 601 114 564 q 85 688 85 639 q 99 774 85 736 q 138 836 114 811 q 194 874 163 861 q 261 886 226 886 m 261 815 q 194 784 219 815 q 169 688 169 753 q 194 592 169 622 q 261 563 219 563 q 327 592 301 563 q 353 688 353 622 q 327 784 353 753 q 261 815 301 815 m 742 871 l 851 871 l 265 0 l 156 0 l 742 871 m 744 382 q 811 369 779 382 q 868 332 843 357 q 908 269 893 307 q 922 183 922 232 q 908 97 922 135 q 868 35 893 60 q 811 -3 843 10 q 744 -15 779 -15 q 678 -3 710 -15 q 622 35 646 10 q 583 97 597 60 q 568 183 568 135 q 583 269 568 232 q 622 332 597 307 q 678 369 646 357 q 744 382 710 382 m 744 310 q 678 279 703 310 q 653 183 653 249 q 678 88 653 117 q 744 58 703 58 q 810 88 785 58 q 836 183 836 117 q 810 279 836 249 q 744 310 785 310 z "},"&":{"ha":1196,"x_min":107,"x_max":1149,"o":"m 1149 192 q 1098 41 1142 94 q 968 -12 1054 -12 q 871 8 915 -12 q 775 78 826 29 l 735 114 q 597 21 672 54 q 426 -12 522 -12 q 299 6 357 -12 q 197 58 240 25 q 131 137 154 92 q 107 235 107 182 q 168 380 107 326 q 353 454 229 433 q 264 563 293 510 q 235 679 235 617 q 253 760 235 722 q 305 825 271 797 q 386 868 339 853 q 492 883 433 883 q 587 867 543 883 q 663 824 631 851 q 713 758 694 796 q 731 679 731 721 q 683 544 731 604 q 515 429 635 483 l 729 238 q 811 365 774 294 q 879 515 849 435 l 953 475 q 881 316 919 390 q 794 179 842 242 l 857 124 q 910 85 889 96 q 963 74 932 74 q 1025 101 999 74 q 1056 192 1051 129 l 1149 192 m 207 235 q 262 119 207 167 q 422 71 317 71 q 554 97 493 71 q 668 172 615 124 l 419 396 q 258 340 308 381 q 207 235 207 300 m 629 679 q 592 767 629 732 q 492 801 554 801 q 426 790 454 801 q 378 761 397 779 q 349 719 358 743 q 339 668 339 694 q 358 591 339 628 q 417 518 376 554 l 456 483 q 542 532 508 508 q 594 580 575 556 q 622 628 614 604 q 629 679 629 653 z "},"*":{"ha":572,"x_min":79,"x_max":496,"o":"m 242 715 l 79 771 l 111 844 l 260 769 l 246 949 l 329 949 l 315 769 l 464 846 l 496 772 l 335 715 l 461 592 l 400 538 l 289 683 l 176 538 l 117 592 l 242 715 z "},"<":{"ha":626,"x_min":56,"x_max":558,"o":"m 558 707 l 160 421 l 558 139 l 493 56 l 56 376 l 56 467 l 493 788 l 558 707 z "},">":{"ha":626,"x_min":65,"x_max":571,"o":"m 135 790 l 571 469 l 571 376 l 135 56 l 65 139 l 463 422 l 65 710 l 135 790 z "},"^":{"ha":615,"x_min":29,"x_max":596,"o":"m 29 342 l 271 813 l 354 813 l 596 342 l 478 342 l 313 685 l 149 342 l 29 342 z "},"{":{"ha":481,"x_min":104,"x_max":461,"o":"m 461 -190 q 326 -166 381 -190 q 239 -99 272 -142 q 192 3 206 -56 q 178 133 178 63 l 178 261 q 166 346 178 321 q 126 371 154 371 l 104 371 l 104 474 l 126 474 q 166 498 154 474 q 178 583 178 522 l 178 710 q 192 840 178 781 q 239 943 206 900 q 326 1010 272 986 q 461 1035 381 1035 l 461 950 q 317 891 358 950 q 275 718 275 832 l 275 581 q 255 478 275 515 q 203 425 235 442 l 203 419 q 255 367 235 404 q 275 264 275 329 l 275 126 q 317 -47 275 14 q 461 -107 358 -107 l 461 -190 z "},"|":{"ha":379,"x_min":140,"x_max":238,"o":"m 140 1040 l 238 1040 l 238 -169 l 140 -169 l 140 1040 z "},"}":{"ha":481,"x_min":19,"x_max":376,"o":"m 19 -107 q 164 -47 122 -107 q 206 126 206 14 l 206 264 q 226 367 206 329 q 278 419 246 404 l 278 425 q 226 478 246 442 q 206 581 206 515 l 206 718 q 164 891 206 832 q 19 950 122 950 l 19 1035 q 154 1010 100 1035 q 242 943 208 986 q 289 840 275 900 q 303 710 303 781 l 303 583 q 315 498 303 522 q 354 474 326 474 l 376 474 l 376 371 l 354 371 q 315 346 326 371 q 303 261 303 321 l 303 133 q 289 3 303 63 q 242 -99 275 -56 q 154 -166 208 -142 q 19 -190 100 -190 l 19 -107 z "},"~":{"ha":711,"x_min":74,"x_max":638,"o":"m 132 311 l 74 342 q 133 456 96 417 q 221 494 169 494 q 276 486 244 494 q 360 456 307 478 q 443 425 417 432 q 489 418 469 418 q 539 438 515 418 q 579 497 563 457 l 638 460 q 573 350 613 385 q 482 315 533 315 q 429 325 461 315 q 344 354 397 335 q 297 373 317 365 q 263 385 278 381 q 238 391 249 389 q 218 393 228 393 q 173 374 194 393 q 132 311 151 356 z "},"£":{"ha":772,"x_min":38,"x_max":728,"o":"m 38 82 l 75 82 q 153 113 129 82 q 176 207 176 143 l 176 361 l 51 361 l 51 436 l 176 436 l 176 604 q 238 810 176 738 q 425 883 299 883 q 581 832 519 883 q 657 685 642 781 l 560 685 q 512 768 549 742 q 425 794 475 794 q 315 749 357 794 q 274 604 274 704 l 274 436 l 535 436 l 535 361 l 274 361 l 274 213 q 264 133 274 165 q 228 82 254 101 l 485 82 q 583 110 551 82 q 624 200 614 139 l 728 200 q 706 117 721 154 q 662 53 690 79 q 590 14 633 28 q 483 0 546 0 l 38 0 l 38 82 z "},"ʼ":{"ha":251,"x_min":50,"x_max":251,"o":"m 81 797 q 101 846 81 825 q 157 867 122 867 q 225 836 199 867 q 251 761 251 806 q 221 664 251 713 q 131 585 190 615 l 50 625 q 117 669 90 644 q 153 728 143 693 q 101 749 121 731 q 81 797 81 767 z "},"₨":{"ha":804,"x_min":129,"x_max":694,"o":"m 129 871 l 694 871 l 694 806 l 443 806 q 517 744 490 781 q 554 663 543 707 l 694 663 l 694 596 l 560 596 q 540 504 557 547 q 487 428 522 461 q 397 373 451 394 q 267 346 342 351 l 649 0 l 506 0 l 129 344 l 129 410 l 213 410 q 393 463 335 410 q 456 596 451 515 l 129 596 l 129 663 l 450 663 q 376 766 435 726 q 213 806 318 806 l 129 806 l 129 871 z "},"௦":{"ha":740,"x_min":74,"x_max":678,"o":"m 376 615 q 224 541 274 615 q 174 344 174 467 q 224 149 174 224 q 376 75 274 75 q 528 149 478 75 q 578 344 578 224 q 528 541 578 467 q 376 615 479 615 m 376 703 q 513 676 456 703 q 606 603 569 650 q 660 490 643 556 q 678 344 678 424 q 660 200 678 265 q 606 88 643 135 q 513 14 569 40 q 376 -12 456 -12 q 240 14 297 -12 q 146 88 183 40 q 91 200 108 135 q 74 344 74 265 q 91 490 74 424 q 146 603 108 556 q 240 676 183 650 q 376 703 297 703 z "},"௧":{"ha":1067,"x_min":63,"x_max":1006,"o":"m 328 386 l 574 386 l 574 611 l 328 611 l 328 386 m 267 318 q 190 297 214 318 q 165 239 165 276 q 185 172 165 203 q 239 118 204 140 q 319 83 274 96 q 417 71 364 71 q 537 113 500 71 q 574 240 574 154 l 574 318 l 267 318 m 874 699 l 874 611 l 671 611 l 671 386 l 788 386 q 947 336 889 386 q 1006 208 1006 286 q 992 129 1006 164 q 954 67 978 94 q 899 21 931 40 q 832 -12 868 1 l 767 64 q 867 116 829 79 q 904 211 904 153 q 872 288 904 257 q 779 318 840 318 l 671 318 l 671 238 q 610 51 671 114 q 424 -12 550 -12 q 280 9 346 -12 q 165 67 214 31 q 90 151 117 104 q 63 250 63 199 q 106 351 63 315 q 219 386 149 386 l 236 386 l 236 699 l 874 699 z "},"௨":{"ha":1131,"x_min":90,"x_max":1114,"o":"m 392 710 q 511 690 456 710 q 608 635 567 671 q 672 549 649 599 q 694 438 694 499 q 614 215 694 307 q 379 85 533 122 l 1114 85 l 1114 0 l 115 0 l 103 96 q 216 106 161 96 q 319 131 271 115 q 406 168 367 147 q 474 213 446 189 q 353 181 414 181 q 254 202 301 185 q 170 251 207 219 q 112 328 133 283 q 90 435 90 374 q 113 548 90 497 q 176 635 136 599 q 272 690 217 671 q 392 710 326 710 m 392 624 q 308 608 344 624 q 245 567 271 593 q 206 506 219 542 q 193 429 193 471 q 210 342 193 379 q 254 282 226 306 q 318 247 282 258 q 392 235 354 235 q 469 247 433 235 q 533 283 506 258 q 576 344 560 307 q 592 429 592 381 q 578 506 592 471 q 538 567 564 542 q 476 608 513 593 q 392 624 439 624 z "},"௩":{"ha":1083,"x_min":135,"x_max":1067,"o":"m 789 699 l 789 611 l 624 611 l 624 396 l 738 396 q 831 383 792 396 q 895 347 869 369 q 933 295 921 325 q 944 231 944 265 q 922 147 944 183 q 854 88 900 111 l 1067 88 l 1067 0 l 551 0 l 551 88 l 675 88 q 801 125 761 88 q 842 215 842 163 q 814 293 842 261 q 717 325 786 325 l 526 325 l 526 611 l 232 611 l 232 0 l 135 0 l 135 699 l 789 699 z "},"௫":{"ha":1124,"x_min":63,"x_max":1035,"o":"m 1035 699 l 1035 331 l 1007 331 l 1007 318 l 671 318 l 671 238 q 610 51 671 114 q 424 -12 550 -12 q 280 9 346 -12 q 165 67 214 31 q 90 151 117 104 q 63 250 63 199 q 106 351 63 315 q 219 386 149 386 l 236 386 l 236 699 l 794 699 l 794 611 l 671 611 l 671 386 l 938 386 l 938 699 l 1035 699 m 267 318 q 190 297 214 318 q 165 239 165 276 q 185 172 165 203 q 239 118 204 140 q 319 83 274 96 q 417 71 364 71 q 537 113 500 71 q 574 240 574 154 l 574 318 l 267 318 m 328 386 l 574 386 l 574 611 l 328 611 l 328 386 z "},"௬":{"ha":1439,"x_min":83,"x_max":1369,"o":"m 1142 699 l 1142 611 l 975 611 l 975 283 q 1047 376 1000 346 q 1157 407 1094 407 q 1239 388 1200 407 q 1307 335 1278 369 q 1353 251 1336 300 q 1369 142 1369 201 q 1326 -62 1369 29 q 1203 -216 1282 -153 q 1017 -313 1125 -279 q 778 -347 908 -347 q 496 -308 624 -347 q 276 -193 368 -268 q 134 -9 185 -118 q 83 240 83 100 q 119 481 83 365 q 214 708 154 596 l 306 683 q 217 460 247 567 q 186 240 186 354 q 227 27 186 119 q 345 -128 268 -65 q 531 -222 422 -190 q 778 -254 640 -254 q 967 -228 878 -254 q 1122 -151 1056 -201 q 1228 -26 1189 -100 q 1267 142 1267 47 q 1232 275 1267 228 q 1136 322 1197 322 q 1074 306 1103 322 q 1022 260 1044 289 q 988 190 1000 231 q 975 103 975 150 l 975 0 l 879 0 l 879 611 l 585 611 l 585 0 l 488 0 l 488 699 l 1142 699 z "},"௭":{"ha":1474,"x_min":63,"x_max":1419,"o":"m 874 699 l 874 611 l 671 611 l 671 386 l 1419 386 l 1419 315 l 1286 315 l 1286 0 l 1189 0 l 1189 315 l 967 315 l 967 0 l 871 0 l 871 315 l 671 315 l 671 238 q 610 51 671 114 q 424 -12 550 -12 q 280 9 346 -12 q 165 67 214 31 q 90 151 117 104 q 63 250 63 199 q 106 351 63 315 q 219 386 149 386 l 236 386 l 236 699 l 874 699 m 267 318 q 190 297 214 318 q 165 239 165 276 q 185 172 165 203 q 239 118 204 140 q 319 83 274 96 q 417 71 364 71 q 537 113 500 71 q 574 240 574 154 l 574 318 l 267 318 m 328 386 l 574 386 l 574 611 l 328 611 l 328 386 z "},"௪":{"ha":1090,"x_min":74,"x_max":1061,"o":"m 1061 699 l 1061 611 l 899 611 l 899 0 l 801 0 l 801 611 l 597 611 q 426 586 503 611 q 293 518 349 561 q 207 416 238 475 q 176 289 176 357 q 215 147 176 197 q 314 78 254 96 q 294 219 286 147 q 353 353 303 299 q 489 407 403 407 q 625 353 576 407 q 674 219 674 300 q 653 128 674 171 q 597 55 633 86 q 511 6 561 24 q 401 -12 461 -12 q 278 10 338 -12 q 174 74 219 33 q 101 173 128 115 q 74 300 74 231 q 110 458 74 385 q 215 584 147 531 q 381 668 283 638 q 597 699 478 699 l 1061 699 m 478 322 q 428 310 450 322 q 390 278 406 299 q 366 233 375 258 q 356 179 357 207 q 358 122 354 150 q 372 69 361 93 q 404 65 389 65 q 458 75 429 65 q 513 104 488 85 q 556 152 539 124 q 572 219 572 181 q 549 293 572 264 q 478 322 526 322 z "},"௮":{"ha":1238,"x_min":44,"x_max":1103,"o":"m 499 710 q 644 681 581 710 q 753 603 708 651 q 821 494 797 556 q 846 368 844 433 l 1006 368 l 1006 703 l 1103 703 l 1103 0 l 1006 0 l 1006 299 l 842 299 q 806 178 833 235 q 728 80 778 122 q 608 13 679 38 q 442 -12 538 -12 q 276 9 350 -12 q 151 66 203 31 q 72 147 100 101 q 44 240 44 192 q 90 338 44 307 q 211 368 136 368 l 329 368 q 267 426 292 389 q 242 511 242 463 q 260 591 242 554 q 314 654 279 628 q 395 695 349 681 q 499 710 442 710 m 442 75 q 649 135 576 75 q 738 299 721 194 l 233 299 q 169 280 190 299 q 149 229 149 261 q 167 174 149 201 q 224 124 186 146 q 316 89 261 103 q 442 75 371 75 m 344 493 q 380 408 344 444 q 486 368 415 371 l 743 368 q 724 469 742 422 q 674 550 706 515 q 600 604 643 585 q 506 624 557 624 q 388 588 431 624 q 344 493 344 551 z "},"௯":{"ha":1658,"x_min":63,"x_max":1579,"o":"m 843 699 l 843 611 l 671 611 l 671 386 l 858 386 q 913 492 878 444 q 997 574 949 540 q 1107 628 1046 608 q 1239 647 1168 647 q 1389 618 1325 647 q 1495 540 1453 589 q 1558 426 1538 490 q 1579 290 1579 361 q 1558 138 1579 215 q 1496 -11 1536 61 l 1404 36 q 1463 166 1444 100 q 1481 293 1481 232 q 1465 397 1481 349 q 1419 482 1450 446 q 1340 539 1388 518 q 1228 560 1292 560 q 1062 511 1133 560 q 951 386 990 463 l 1069 386 q 1166 372 1124 386 q 1238 331 1208 357 q 1284 270 1268 306 q 1300 194 1300 235 q 1285 114 1300 151 q 1244 48 1271 76 q 1176 3 1217 19 q 1085 -12 1136 -12 q 988 6 1033 -12 q 910 60 943 25 q 858 146 876 96 q 839 258 839 196 q 840 288 839 274 q 843 318 840 303 l 671 318 l 671 238 q 610 51 671 114 q 424 -12 550 -12 q 280 9 346 -12 q 165 67 214 31 q 90 151 117 104 q 63 250 63 199 q 106 351 63 315 q 219 386 149 386 l 236 386 l 236 699 l 843 699 m 267 318 q 190 297 214 318 q 165 239 165 276 q 185 172 165 203 q 239 118 204 140 q 319 83 274 96 q 417 71 364 71 q 537 113 500 71 q 574 240 574 154 l 574 318 l 267 318 m 936 318 q 932 285 933 301 q 931 254 931 269 q 973 113 931 158 q 1085 68 1015 68 q 1176 103 1140 68 q 1213 197 1213 138 q 1174 287 1213 256 q 1065 318 1136 318 l 936 318 m 328 386 l 574 386 l 574 611 l 328 611 l 328 386 z "},"௰":{"ha":1186,"x_min":126,"x_max":1114,"o":"m 554 1008 q 793 968 689 1008 q 969 856 897 928 q 1077 683 1040 783 q 1114 464 1114 583 q 1088 274 1114 361 q 1014 124 1061 188 q 901 24 967 60 q 758 -12 836 -12 q 615 23 675 -12 q 531 129 556 58 q 467 26 511 65 q 347 -12 422 -12 q 185 55 243 -12 q 126 244 126 122 l 126 699 l 224 699 l 224 251 q 263 118 224 161 q 364 75 301 75 q 469 127 432 78 q 506 275 506 176 l 506 699 l 601 699 l 601 246 q 642 115 601 154 q 758 75 682 75 q 856 104 810 75 q 936 185 901 133 q 991 309 971 238 q 1011 464 1011 381 q 893 801 1011 681 q 557 921 775 921 q 463 915 510 921 q 363 893 417 908 l 318 988 q 440 1003 383 999 q 554 1008 497 1008 z "},"௱":{"ha":1231,"x_min":126,"x_max":1201,"o":"m 1201 699 l 1201 611 l 1039 611 l 1039 0 l 942 0 l 942 611 l 647 611 l 647 0 l 550 0 l 550 415 q 534 508 549 469 q 496 573 519 547 q 442 611 472 599 q 381 624 413 624 q 267 579 311 624 q 224 443 224 535 l 224 0 l 126 0 l 126 463 q 189 649 126 588 q 353 710 251 710 q 472 674 422 710 q 550 575 522 639 l 550 699 l 1201 699 z "},"௲":{"ha":1519,"x_min":63,"x_max":1479,"o":"m 874 699 l 874 611 l 671 611 l 671 386 l 1363 386 l 1363 315 l 1203 315 l 1203 161 l 1238 161 q 1415 105 1350 161 q 1479 -51 1479 49 q 1457 -162 1479 -110 q 1388 -252 1435 -214 q 1272 -312 1342 -290 q 1106 -335 1201 -335 l 868 -335 q 813 -379 813 -335 q 850 -446 813 -412 l 788 -479 q 740 -426 760 -456 q 721 -364 721 -397 q 751 -292 721 -318 q 833 -265 781 -265 l 1106 -265 q 1314 -206 1246 -265 q 1382 -51 1382 -146 q 1348 52 1382 13 q 1238 92 1314 92 l 1203 92 l 1203 35 q 1153 -106 1203 -53 q 1000 -158 1104 -158 q 901 -143 950 -158 q 813 -100 851 -128 q 749 -35 774 -72 q 725 49 725 3 q 763 134 725 107 q 864 161 801 161 l 1107 161 l 1107 315 l 671 315 l 671 238 q 610 51 671 114 q 424 -12 550 -12 q 280 9 346 -12 q 165 67 214 31 q 90 151 117 104 q 63 250 63 199 q 106 351 63 315 q 219 386 149 386 l 236 386 l 236 699 l 874 699 m 267 318 q 190 297 214 318 q 165 239 165 276 q 185 172 165 203 q 239 118 204 140 q 319 83 274 96 q 417 71 364 71 q 537 113 500 71 q 574 240 574 154 l 574 318 l 267 318 m 333 386 l 574 386 l 574 611 l 333 611 l 333 386 m 879 92 q 830 76 847 92 q 813 32 813 60 q 828 -15 813 7 q 868 -54 843 -37 q 925 -80 893 -71 q 990 -89 957 -89 q 1080 -56 1053 -89 q 1107 35 1107 -24 l 1107 92 l 879 92 z "},"்":{"ha":263,"x_min":63,"x_max":199,"o":"m 63 953 q 82 1002 63 982 q 129 1022 101 1022 q 178 1002 158 1022 q 199 953 199 982 q 178 906 199 925 q 129 886 158 886 q 82 906 101 886 q 63 953 63 925 z "},"ஂ":{"ha":432,"x_min":51,"x_max":381,"o":"m 215 1119 q 278 1109 249 1119 q 331 1078 308 1099 q 367 1030 354 1058 q 381 964 381 1001 q 367 897 381 926 q 331 849 354 868 q 278 819 308 829 q 215 808 249 808 q 100 849 149 808 q 51 964 51 889 q 65 1030 51 1001 q 100 1078 78 1058 q 152 1109 122 1099 q 215 1119 182 1119 m 215 1047 q 161 1024 179 1047 q 143 964 143 1001 q 161 903 143 925 q 215 881 179 881 q 270 903 251 881 q 289 964 289 925 q 270 1024 289 1001 q 215 1047 251 1047 z "},"ஃ":{"ha":1044,"x_min":57,"x_max":988,"o":"m 521 896 q 601 881 563 896 q 668 840 639 867 q 715 772 697 813 q 732 679 732 731 q 715 588 732 628 q 668 520 697 547 q 601 478 639 493 q 521 464 563 464 q 441 478 479 464 q 374 520 403 493 q 328 588 346 547 q 311 679 311 628 q 328 772 311 731 q 374 840 346 813 q 441 881 403 867 q 521 896 479 896 m 267 422 q 347 408 308 422 q 414 365 385 393 q 460 297 443 338 q 478 204 478 256 q 460 113 478 153 q 414 44 443 72 q 347 2 385 17 q 267 -12 308 -12 q 188 2 225 -12 q 121 44 150 17 q 74 113 92 72 q 57 204 57 153 q 74 297 57 256 q 121 365 92 338 q 188 408 150 393 q 267 422 225 422 m 778 422 q 857 408 819 422 q 924 365 894 393 q 970 297 953 338 q 988 204 988 256 q 970 113 988 153 q 924 44 953 72 q 857 2 894 17 q 778 -12 819 -12 q 698 2 736 -12 q 631 44 660 17 q 584 113 601 72 q 567 204 567 153 q 584 297 567 256 q 631 365 601 338 q 698 408 660 393 q 778 422 736 422 m 267 343 q 185 307 215 343 q 154 204 154 271 q 185 103 154 139 q 267 67 215 67 q 349 103 318 67 q 381 204 381 139 q 349 307 381 271 q 267 343 318 343 m 778 343 q 696 307 726 343 q 665 204 665 271 q 696 103 665 139 q 778 67 726 67 q 860 103 829 67 q 892 204 892 139 q 860 307 892 271 q 778 343 829 343 m 521 818 q 439 782 469 818 q 408 679 408 746 q 439 576 408 613 q 521 540 469 540 q 603 576 572 540 q 635 679 635 613 q 603 782 635 746 q 521 818 572 818 z "},"அ":{"ha":1286,"x_min":33,"x_max":1151,"o":"m 543 710 q 680 681 615 710 q 792 603 744 651 q 869 493 840 556 q 897 364 897 431 l 1056 364 l 1056 703 l 1151 703 l 1151 0 l 1056 0 l 1056 296 l 892 296 q 851 171 882 228 q 767 74 819 114 q 641 10 714 33 q 475 -12 568 -12 q 288 11 371 -12 q 149 72 206 35 q 63 153 93 108 q 33 242 33 199 q 77 334 33 304 q 192 364 121 364 l 297 364 q 249 483 249 410 q 274 578 249 536 q 342 650 300 621 q 436 694 383 679 q 543 710 489 710 m 475 71 q 696 129 607 71 q 807 296 785 188 l 221 296 q 157 279 182 296 q 132 226 132 263 q 153 168 132 196 q 217 119 174 140 q 324 84 260 97 q 475 71 389 71 m 553 506 q 547 566 553 536 q 528 626 542 596 q 454 611 489 624 q 393 578 419 599 q 351 531 367 558 q 336 472 336 504 q 361 396 336 425 q 426 364 386 367 l 435 364 q 520 405 488 364 q 553 506 553 446 m 621 496 q 607 418 621 451 q 574 364 593 385 l 814 364 q 794 460 814 415 q 744 540 775 506 q 671 596 713 574 q 583 625 629 618 q 610 564 599 596 q 621 496 621 532 z "},"ஆ":{"ha":1617,"x_min":33,"x_max":1547,"o":"m 543 710 q 680 681 615 710 q 792 603 744 651 q 869 493 840 556 q 897 364 897 431 l 1056 364 l 1056 703 l 1151 703 l 1151 283 q 1223 376 1176 346 q 1329 407 1269 407 q 1416 388 1376 407 q 1485 335 1456 369 q 1531 255 1514 301 q 1547 153 1547 208 q 1510 -5 1547 65 q 1408 -124 1474 -75 q 1253 -199 1342 -174 q 1060 -225 1164 -225 q 922 -214 997 -225 q 781 -178 846 -203 l 781 -75 q 924 -122 847 -107 q 1060 -137 1000 -137 q 1215 -117 1144 -137 q 1337 -58 1286 -96 q 1416 34 1388 -19 q 1444 153 1444 88 q 1405 279 1444 236 q 1313 322 1365 322 q 1249 306 1279 322 q 1198 260 1219 289 q 1164 190 1176 231 q 1151 103 1151 150 l 1151 0 l 1056 0 l 1056 296 l 892 296 q 851 171 882 228 q 767 74 819 114 q 641 10 714 33 q 475 -12 568 -12 q 288 11 371 -12 q 149 72 206 35 q 63 153 93 108 q 33 242 33 199 q 77 334 33 304 q 192 364 121 364 l 297 364 q 249 483 249 410 q 274 578 249 536 q 342 650 300 621 q 436 694 383 679 q 543 710 489 710 m 475 71 q 696 129 607 71 q 807 296 785 188 l 221 296 q 157 279 182 296 q 132 226 132 263 q 153 168 132 196 q 217 119 174 140 q 324 84 260 97 q 475 71 389 71 m 553 506 q 547 566 553 536 q 528 626 542 596 q 454 611 489 624 q 393 578 419 599 q 351 531 367 558 q 336 472 336 504 q 364 394 336 424 q 435 364 392 364 l 440 364 q 522 407 492 367 q 553 506 553 447 m 621 496 q 607 418 621 451 q 574 364 593 385 l 814 364 q 795 460 814 415 q 744 540 776 506 q 671 596 713 574 q 583 625 629 618 q 610 565 600 597 q 621 496 621 532 z "},"இ":{"ha":1410,"x_min":69,"x_max":1313,"o":"m 719 1010 q 967 959 860 1010 q 1148 821 1075 908 q 1258 617 1221 733 q 1296 371 1296 501 l 1296 185 l 1210 185 l 1210 365 q 1180 587 1210 485 q 1089 763 1150 689 q 935 880 1028 838 q 719 922 843 922 q 505 885 600 922 q 343 784 410 849 q 241 631 276 719 q 206 440 206 543 q 239 262 206 343 q 328 106 272 181 q 486 151 399 135 q 669 167 574 167 q 797 158 736 167 q 915 135 857 150 q 940 224 931 178 q 950 315 950 269 q 934 425 950 372 q 890 521 918 478 q 823 594 863 564 q 738 636 783 624 q 767 565 757 604 q 778 489 778 526 q 765 417 778 451 q 728 356 753 383 q 670 313 704 329 q 594 297 636 297 q 524 311 557 297 q 467 349 492 325 q 428 407 442 374 q 414 478 414 440 q 439 576 414 533 q 504 649 464 619 q 594 693 544 678 q 696 708 644 708 q 815 682 756 708 q 923 605 875 656 q 1001 481 971 554 q 1031 315 1031 408 q 993 114 1031 210 q 1120 58 1061 89 q 1222 -9 1179 28 q 1288 -87 1264 -46 q 1313 -171 1313 -128 q 1247 -300 1313 -253 q 1078 -347 1182 -347 q 883 -321 976 -347 q 685 -242 790 -294 q 513 -317 606 -287 q 314 -347 421 -347 q 212 -333 257 -347 q 135 -294 167 -319 q 86 -236 103 -269 q 69 -164 69 -203 q 118 -33 69 -93 q 253 74 167 26 q 152 251 189 158 q 115 443 115 343 q 160 677 115 572 q 286 856 206 782 q 478 969 367 929 q 719 1010 589 1010 m 1217 -165 q 1199 -105 1217 -135 q 1147 -47 1181 -75 q 1068 5 1114 -19 q 968 50 1022 29 q 874 -91 926 -31 q 746 -200 821 -151 q 906 -253 829 -235 q 1061 -272 983 -272 q 1176 -242 1135 -272 q 1217 -165 1217 -212 m 669 -162 q 794 -57 742 -114 q 886 72 846 0 q 668 97 783 97 q 518 84 593 97 q 381 47 443 71 q 513 -67 439 -17 q 669 -162 588 -118 m 317 -272 q 465 -253 389 -272 q 607 -203 540 -235 q 442 -103 521 -158 q 306 15 363 -49 q 200 -70 238 -21 q 163 -168 163 -119 q 200 -244 163 -217 q 317 -272 238 -272 m 686 628 q 613 614 647 625 q 551 583 578 603 q 510 536 525 563 q 494 478 494 510 q 522 401 494 429 q 592 372 550 372 q 677 410 644 372 q 710 514 710 449 q 686 628 710 575 z "},"ஈ":{"ha":979,"x_min":135,"x_max":904,"o":"m 904 699 l 904 611 l 663 611 l 663 0 l 565 0 l 565 611 l 232 611 l 232 0 l 135 0 l 135 699 l 904 699 m 397 378 q 444 358 425 378 q 463 311 463 339 q 444 265 463 283 q 397 247 425 247 q 351 265 369 247 q 333 311 333 283 q 351 358 333 339 q 397 378 369 378 m 828 378 q 874 358 856 378 q 893 311 893 339 q 874 265 893 283 q 828 247 856 247 q 782 265 800 247 q 764 311 764 283 q 782 358 764 339 q 828 378 800 378 z "},"உ":{"ha":1244,"x_min":79,"x_max":1222,"o":"m 386 710 q 516 688 451 710 q 631 626 581 665 q 713 531 682 586 q 744 408 744 475 q 719 290 744 343 q 649 197 694 238 q 542 128 604 157 q 406 85 481 100 l 1222 85 l 1222 0 l 104 0 l 92 96 q 322 119 219 97 q 494 180 424 140 q 603 277 565 219 q 642 408 642 335 q 625 493 642 454 q 579 561 608 532 q 511 608 550 590 q 428 628 472 625 q 458 558 447 596 q 469 482 469 519 q 419 350 469 403 q 275 297 369 297 q 199 309 235 297 q 138 344 164 321 q 95 399 111 367 q 79 472 79 431 q 106 574 79 529 q 177 648 133 618 q 276 694 221 678 q 386 710 331 710 m 374 626 q 235 578 288 622 q 182 468 182 533 q 208 400 182 426 q 278 374 235 374 q 363 412 331 374 q 396 515 396 450 q 391 571 396 543 q 374 626 386 599 z "},"ஊ":{"ha":1968,"x_min":79,"x_max":1929,"o":"m 1132 710 q 1275 667 1215 710 q 1364 544 1335 624 l 1364 699 l 1929 699 l 1929 615 l 1788 615 l 1788 211 l 1690 211 l 1690 615 l 1456 615 l 1456 211 l 1364 211 l 1364 381 q 1315 549 1364 482 q 1181 625 1267 615 q 1099 621 1142 632 q 1195 520 1157 581 q 1233 392 1233 460 q 1181 252 1233 306 q 1042 199 1129 199 q 963 214 1000 199 q 899 258 926 229 q 855 327 871 286 q 839 418 839 368 q 861 534 839 481 q 923 626 883 588 q 1016 688 963 665 q 1132 710 1069 710 m 1051 604 q 972 528 1001 578 q 942 411 942 478 q 971 310 942 347 q 1047 274 1000 274 q 1124 311 1094 274 q 1154 407 1154 349 q 1125 516 1154 465 q 1051 604 1096 567 m 386 710 q 516 688 451 710 q 631 626 581 665 q 713 531 682 586 q 744 408 744 475 q 719 290 744 343 q 649 197 694 238 q 542 128 604 157 q 406 85 481 100 l 1929 85 l 1929 0 l 104 0 l 92 96 q 322 119 219 97 q 494 180 424 140 q 603 277 565 219 q 642 408 642 335 q 625 493 642 454 q 579 561 608 532 q 511 608 550 590 q 428 628 472 625 q 458 558 447 596 q 469 482 469 519 q 419 350 469 403 q 275 297 369 297 q 199 309 235 297 q 138 344 164 321 q 95 399 111 367 q 79 472 79 431 q 106 574 79 529 q 177 648 133 618 q 276 694 221 678 q 386 710 331 710 m 374 626 q 235 578 288 622 q 182 468 182 533 q 208 400 182 426 q 278 374 235 374 q 363 412 331 374 q 396 515 396 450 q 391 571 396 543 q 374 626 386 599 z "},"எ":{"ha":1090,"x_min":74,"x_max":1061,"o":"m 1061 699 l 1061 611 l 899 611 l 899 0 l 801 0 l 801 611 l 597 611 q 426 586 503 611 q 293 518 349 561 q 207 416 238 475 q 176 289 176 357 q 215 147 176 197 q 314 78 254 96 q 294 219 286 147 q 353 353 303 299 q 489 407 403 407 q 625 353 576 407 q 674 219 674 300 q 653 128 674 171 q 597 55 633 86 q 511 6 561 24 q 401 -12 461 -12 q 278 10 338 -12 q 174 74 219 33 q 101 173 128 115 q 74 300 74 231 q 110 458 74 385 q 215 584 147 531 q 381 668 283 638 q 597 699 478 699 l 1061 699 m 478 322 q 428 310 450 322 q 390 278 406 299 q 366 233 375 258 q 356 179 357 207 q 358 122 354 150 q 372 69 361 93 q 404 65 389 65 q 458 75 429 65 q 513 104 488 85 q 556 152 539 124 q 572 219 572 181 q 549 293 572 264 q 478 322 526 322 z "},"ஏ":{"ha":1090,"x_min":74,"x_max":1061,"o":"m 1061 699 l 1061 611 l 899 611 l 899 -76 l 568 -347 l 478 -299 l 801 -29 l 801 611 l 597 611 q 426 586 503 611 q 293 518 349 561 q 207 416 238 475 q 176 289 176 357 q 215 147 176 197 q 314 78 254 96 q 294 219 286 147 q 353 353 303 299 q 489 407 403 407 q 625 353 576 407 q 674 219 674 300 q 653 128 674 171 q 597 55 633 86 q 511 6 561 24 q 401 -12 461 -12 q 278 10 338 -12 q 174 74 219 33 q 101 173 128 115 q 74 300 74 231 q 110 458 74 385 q 215 584 147 531 q 381 668 283 638 q 597 699 478 699 l 1061 699 m 478 322 q 428 310 450 322 q 390 278 406 299 q 366 233 375 258 q 356 179 357 207 q 358 122 354 150 q 372 69 361 93 q 404 65 389 65 q 458 75 429 65 q 513 104 488 85 q 556 152 539 124 q 572 219 572 181 q 549 293 572 264 q 478 322 526 322 z "},"ஐ":{"ha":1185,"x_min":90,"x_max":1094,"o":"m 856 710 q 949 690 906 710 q 1024 633 992 669 q 1076 548 1057 597 q 1094 440 1094 499 q 1055 271 1094 342 q 949 154 1015 200 q 795 87 882 108 q 614 65 708 65 l 363 65 q 236 25 279 65 q 193 -82 193 -15 q 247 -209 193 -161 q 397 -257 301 -257 q 474 -246 438 -257 q 536 -211 510 -235 q 578 -151 563 -187 q 593 -61 593 -114 l 689 -61 q 733 -210 689 -164 q 844 -257 776 -257 q 951 -217 910 -257 q 992 -110 992 -176 q 981 -34 992 -69 q 944 42 969 1 l 1032 81 q 1094 -118 1094 -24 q 1078 -210 1094 -168 q 1031 -283 1061 -253 q 957 -331 1000 -314 q 861 -347 914 -347 q 740 -312 793 -347 q 661 -200 688 -278 q 561 -309 628 -271 q 397 -347 494 -347 q 276 -327 332 -347 q 178 -271 219 -307 q 114 -185 138 -235 q 90 -75 90 -135 q 159 91 90 29 q 361 153 228 153 l 607 153 q 761 169 690 153 q 883 222 832 186 q 963 312 935 257 q 992 444 992 367 q 953 579 992 532 q 854 626 915 626 q 743 572 788 626 q 699 400 699 517 l 699 306 l 603 306 l 603 383 q 590 467 601 426 q 556 540 578 508 q 499 593 533 572 q 421 618 465 614 q 378 624 403 624 q 336 621 354 624 q 437 528 403 585 q 471 413 471 471 q 424 299 471 343 q 289 254 376 254 q 213 267 249 254 q 150 305 178 279 q 106 368 122 331 q 90 456 90 406 q 113 555 90 508 q 174 635 135 601 q 263 690 213 669 q 372 710 314 710 q 524 666 458 710 q 624 538 590 622 q 710 664 651 618 q 856 710 769 710 m 399 443 q 370 531 399 489 q 288 603 342 574 q 215 540 243 579 q 188 444 188 500 q 218 358 188 386 q 289 331 249 331 q 369 362 339 331 q 399 443 399 393 z "},"ஒ":{"ha":1494,"x_min":74,"x_max":1417,"o":"m 754 710 q 1025 673 903 710 q 1234 574 1147 636 q 1369 429 1321 511 q 1417 258 1417 347 q 1399 146 1417 196 q 1350 60 1382 96 q 1274 6 1318 25 q 1179 -12 1231 -12 q 1097 1 1135 -12 q 1032 38 1060 14 q 988 97 1004 63 q 972 172 972 131 q 1004 299 972 231 q 896 186 935 254 q 857 44 857 118 q 928 -117 857 -64 q 1128 -171 999 -171 l 1226 -171 l 1226 -258 l 1133 -258 q 1041 -251 1088 -258 q 954 -228 994 -243 q 880 -344 918 -296 q 800 -424 842 -393 q 712 -470 758 -456 q 610 -485 665 -485 q 517 -470 560 -485 q 441 -428 474 -456 q 390 -365 408 -401 q 371 -282 371 -328 q 385 -203 371 -242 q 419 -131 399 -164 l 521 -144 q 474 -286 474 -218 q 512 -369 474 -342 q 610 -397 550 -397 q 742 -350 678 -397 q 872 -182 807 -303 q 787 -85 815 -140 q 758 44 758 -29 q 825 247 758 157 q 1004 403 892 338 l 1108 367 q 1072 279 1083 318 q 1061 192 1061 240 q 1094 106 1061 136 q 1178 75 1126 75 q 1274 126 1235 75 q 1314 258 1314 176 q 1269 404 1314 338 q 1149 520 1225 471 q 972 597 1074 569 q 754 624 869 624 q 514 600 621 624 q 332 531 407 576 q 217 422 257 486 q 176 275 176 357 q 216 144 176 193 q 314 78 256 96 q 294 219 286 147 q 353 353 303 299 q 489 407 403 407 q 625 353 576 407 q 674 219 674 300 q 653 127 674 169 q 595 53 632 85 q 509 5 558 22 q 401 -12 460 -12 q 276 10 336 -12 q 172 74 217 33 q 100 170 126 114 q 74 293 74 226 q 117 465 74 388 q 247 596 161 542 q 460 680 333 650 q 754 710 588 710 m 478 322 q 428 310 450 322 q 390 278 406 299 q 366 233 375 258 q 356 179 357 207 q 358 122 354 150 q 372 69 361 93 q 404 65 389 65 q 458 75 429 65 q 513 104 488 85 q 556 152 539 124 q 572 219 572 181 q 548 293 572 264 q 478 322 524 322 z "},"ஓ":{"ha":1478,"x_min":74,"x_max":1417,"o":"m 1133 -258 q 956 -229 1031 -258 q 871 -346 913 -297 q 785 -425 829 -394 q 694 -470 742 -456 q 593 -485 647 -485 q 499 -470 543 -485 q 422 -430 456 -456 q 370 -369 389 -404 q 351 -292 351 -333 q 366 -224 351 -254 q 406 -174 381 -194 q 463 -142 431 -153 q 531 -131 494 -131 q 615 -150 581 -131 q 672 -203 650 -169 q 706 -278 694 -236 q 718 -367 717 -321 q 808 -285 771 -331 q 876 -189 844 -240 q 788 -90 818 -149 q 758 44 758 -31 q 825 247 758 157 q 1004 403 892 338 l 1108 367 q 1072 279 1083 318 q 1061 192 1061 240 q 1094 106 1061 136 q 1178 75 1126 75 q 1274 126 1235 75 q 1314 258 1314 176 q 1269 404 1314 338 q 1149 520 1225 471 q 972 597 1074 569 q 754 624 869 624 q 514 600 621 624 q 332 531 407 576 q 217 422 257 486 q 176 275 176 357 q 216 144 176 193 q 314 78 256 96 q 294 219 286 147 q 353 353 303 299 q 489 407 403 407 q 625 353 576 407 q 674 219 674 300 q 653 127 674 169 q 595 53 632 85 q 509 5 558 22 q 401 -12 460 -12 q 276 10 336 -12 q 172 74 217 33 q 100 170 126 114 q 74 293 74 226 q 117 465 74 388 q 247 596 161 542 q 460 680 333 650 q 754 710 588 710 q 1025 673 903 710 q 1234 574 1147 636 q 1369 429 1321 511 q 1417 258 1417 347 q 1399 146 1417 196 q 1350 60 1382 96 q 1274 6 1318 25 q 1179 -12 1231 -12 q 1097 1 1135 -12 q 1032 38 1060 14 q 988 97 1004 63 q 972 172 972 131 q 1004 299 972 231 q 896 186 935 254 q 857 44 857 118 q 928 -117 857 -64 q 1128 -171 999 -171 l 1226 -171 l 1226 -258 l 1133 -258 m 478 322 q 428 310 450 322 q 390 278 406 299 q 366 233 375 258 q 356 179 357 207 q 358 122 354 150 q 372 69 361 93 q 404 65 386 65 q 458 75 429 65 q 513 104 488 85 q 556 152 539 124 q 572 219 572 181 q 548 293 572 264 q 478 322 524 322 m 544 -207 q 475 -233 501 -207 q 449 -300 449 -260 q 459 -343 449 -324 q 488 -376 469 -362 q 530 -397 506 -389 q 581 -404 554 -404 q 623 -401 604 -404 q 661 -392 642 -399 q 652 -319 660 -353 q 630 -261 644 -286 q 594 -222 615 -236 q 544 -207 572 -207 z "},"ஔ":{"ha":2979,"x_min":74,"x_max":2950,"o":"m 1133 -258 q 956 -229 1031 -258 q 871 -346 913 -297 q 785 -425 829 -394 q 694 -470 742 -456 q 593 -485 647 -485 q 499 -470 543 -485 q 422 -430 456 -456 q 370 -369 389 -404 q 351 -292 351 -333 q 366 -224 351 -254 q 406 -174 381 -194 q 463 -142 431 -153 q 531 -131 494 -131 q 615 -150 581 -131 q 672 -203 650 -169 q 706 -278 694 -236 q 718 -367 717 -321 q 808 -285 771 -331 q 876 -189 844 -240 q 788 -90 818 -149 q 758 44 758 -31 q 825 247 758 157 q 1004 403 892 338 l 1108 367 q 1072 279 1083 318 q 1061 192 1061 240 q 1094 106 1061 136 q 1178 75 1126 75 q 1274 126 1235 75 q 1314 258 1314 176 q 1269 404 1314 338 q 1149 520 1225 471 q 972 597 1074 569 q 754 624 869 624 q 514 600 621 624 q 332 531 407 576 q 217 422 257 486 q 176 275 176 357 q 216 144 176 193 q 314 78 256 96 q 294 219 286 147 q 353 353 303 299 q 489 407 403 407 q 625 353 576 407 q 674 219 674 300 q 653 127 674 169 q 595 53 632 85 q 509 5 558 22 q 401 -12 460 -12 q 276 10 336 -12 q 172 74 217 33 q 100 170 126 114 q 74 293 74 226 q 117 465 74 388 q 247 596 161 542 q 460 680 333 650 q 754 710 588 710 q 1025 673 903 710 q 1234 574 1147 636 q 1369 429 1321 511 q 1417 258 1417 347 q 1399 146 1417 196 q 1350 60 1382 96 q 1274 6 1318 25 q 1179 -12 1231 -12 q 1097 1 1135 -12 q 1032 38 1060 14 q 988 97 1004 63 q 972 172 972 131 q 1004 299 972 231 q 896 186 935 254 q 857 44 857 118 q 928 -117 857 -64 q 1128 -171 999 -171 l 1226 -171 l 1226 -258 l 1133 -258 m 1964 710 q 2083 691 2029 710 q 2180 640 2138 672 q 2252 562 2222 607 q 2300 464 2282 517 l 2300 699 l 2950 699 l 2950 611 l 2785 611 l 2785 0 l 2689 0 l 2689 611 l 2389 611 l 2389 0 l 2300 0 l 2300 236 q 2276 397 2300 325 q 2210 519 2253 468 q 2107 597 2167 569 q 1976 624 2047 624 q 1844 597 1906 624 q 1739 525 1783 571 q 1669 418 1694 479 q 1643 289 1643 357 q 1682 147 1643 197 q 1781 78 1721 96 q 1761 219 1753 147 q 1819 353 1769 299 q 1956 407 1869 407 q 2092 353 2043 407 q 2140 219 2140 300 q 2120 128 2140 171 q 2064 55 2100 86 q 1978 6 2028 24 q 1868 -12 1928 -12 q 1745 10 1804 -12 q 1640 74 1686 33 q 1567 174 1594 115 q 1540 303 1540 232 q 1574 467 1540 392 q 1666 596 1608 542 q 1801 680 1724 650 q 1964 710 1878 710 m 1944 322 q 1894 310 1917 322 q 1857 278 1872 299 q 1833 233 1842 258 q 1822 179 1824 207 q 1824 122 1821 150 q 1839 69 1828 93 q 1855 66 1846 67 q 1871 65 1864 65 q 1925 75 1896 65 q 1980 104 1954 85 q 2022 152 2006 124 q 2039 219 2039 181 q 2016 293 2039 264 q 1944 322 1993 322 m 478 322 q 428 310 450 322 q 390 278 406 299 q 366 233 375 258 q 356 179 357 207 q 358 122 354 150 q 372 69 361 93 q 404 65 386 65 q 458 75 429 65 q 513 104 488 85 q 556 152 539 124 q 572 219 572 181 q 548 293 572 264 q 478 322 524 322 m 544 -207 q 475 -233 501 -207 q 449 -300 449 -260 q 459 -343 449 -324 q 488 -376 469 -362 q 530 -397 506 -389 q 581 -404 554 -404 q 623 -401 604 -404 q 661 -392 642 -399 q 652 -319 660 -353 q 630 -261 644 -286 q 594 -222 615 -236 q 544 -207 572 -207 z "},"க":{"ha":1067,"x_min":63,"x_max":1006,"o":"m 328 386 l 574 386 l 574 611 l 328 611 l 328 386 m 267 318 q 190 297 214 318 q 165 239 165 276 q 185 172 165 203 q 239 118 204 140 q 319 83 274 96 q 417 71 364 71 q 537 113 500 71 q 574 240 574 154 l 574 318 l 267 318 m 874 699 l 874 611 l 671 611 l 671 386 l 788 386 q 947 336 889 386 q 1006 208 1006 286 q 992 129 1006 164 q 954 67 978 94 q 899 21 931 40 q 832 -12 868 1 l 767 64 q 867 116 829 79 q 904 211 904 153 q 872 288 904 257 q 779 318 840 318 l 671 318 l 671 238 q 610 51 671 114 q 424 -12 550 -12 q 280 9 346 -12 q 165 67 214 31 q 90 151 117 104 q 63 250 63 199 q 106 351 63 315 q 219 386 149 386 l 236 386 l 236 699 l 874 699 z "},"ங":{"ha":1339,"x_min":135,"x_max":1204,"o":"m 789 699 l 789 611 l 624 611 l 624 396 l 753 396 q 845 382 807 396 q 907 345 883 368 q 942 292 931 322 q 953 229 953 263 q 863 88 953 135 l 1108 88 l 1108 699 l 1204 699 l 1204 0 l 551 0 l 551 88 l 689 88 q 817 125 776 88 q 857 215 857 163 q 829 293 857 261 q 732 325 801 325 l 526 325 l 526 611 l 232 611 l 232 0 l 135 0 l 135 699 l 789 699 z "},"ச":{"ha":919,"x_min":63,"x_max":874,"o":"m 326 386 l 574 386 l 574 611 l 326 611 l 326 386 m 265 318 q 188 297 213 318 q 164 239 164 276 q 184 172 164 203 q 238 118 204 140 q 318 83 272 96 q 415 71 364 71 q 537 113 500 71 q 574 240 574 154 l 574 318 l 265 318 m 874 699 l 874 611 l 671 611 l 671 386 l 840 386 l 840 318 l 671 318 l 671 238 q 610 51 671 114 q 424 -12 549 -12 q 280 9 346 -12 q 165 67 214 31 q 90 151 117 104 q 63 250 63 199 q 105 351 63 315 q 218 386 147 386 l 235 386 l 235 699 l 874 699 z "},"ஜ":{"ha":1188,"x_min":90,"x_max":1099,"o":"m 372 710 q 530 662 467 710 q 622 532 593 614 q 709 663 650 615 q 856 710 768 710 q 949 690 906 710 q 1024 633 992 669 q 1076 548 1057 597 q 1094 440 1094 499 q 1055 272 1094 342 q 949 158 1015 203 q 795 93 882 114 q 614 72 708 72 l 378 72 q 306 60 339 72 q 247 27 272 49 q 208 -25 222 6 q 193 -94 193 -56 q 208 -162 193 -132 q 247 -215 222 -193 q 306 -248 272 -236 q 376 -260 339 -260 q 467 -240 424 -260 q 553 -192 511 -221 q 638 -128 596 -162 q 723 -65 679 -94 q 813 -17 767 -36 q 911 3 860 3 q 992 -10 957 3 q 1051 -46 1026 -24 q 1087 -98 1075 -68 q 1099 -160 1099 -128 q 1040 -289 1099 -239 q 865 -353 982 -339 l 804 -296 q 944 -255 890 -286 q 997 -167 997 -224 q 972 -105 997 -131 q 904 -79 946 -79 q 824 -99 864 -79 q 744 -149 785 -119 q 662 -213 704 -178 q 574 -278 619 -249 q 480 -327 529 -307 q 376 -347 431 -347 q 262 -329 314 -347 q 172 -278 210 -311 q 112 -198 133 -244 q 90 -94 90 -151 q 112 11 90 -35 q 172 88 133 57 q 263 136 210 119 q 378 153 315 153 l 613 153 q 764 169 694 153 q 884 222 833 186 q 963 312 935 257 q 992 444 992 367 q 953 579 992 532 q 854 626 915 626 q 743 571 788 626 q 699 399 699 515 l 699 306 l 603 306 l 603 375 q 592 462 603 419 q 558 538 581 504 q 501 592 535 571 q 421 618 467 614 q 378 624 403 624 q 336 621 354 624 q 437 528 403 585 q 471 413 471 471 q 424 299 471 343 q 289 254 376 254 q 213 267 249 254 q 150 305 178 279 q 106 368 122 331 q 90 456 90 406 q 113 555 90 508 q 174 635 135 601 q 263 690 213 669 q 372 710 314 710 m 288 603 q 215 540 243 579 q 188 444 188 500 q 218 358 188 386 q 289 331 249 331 q 369 362 339 331 q 399 443 399 393 q 370 531 399 489 q 288 603 342 574 z "},"ஞ":{"ha":1669,"x_min":94,"x_max":1600,"o":"m 1374 699 l 1374 611 l 1211 611 l 1211 286 q 1282 376 1236 346 q 1389 407 1328 407 q 1471 388 1432 407 q 1538 333 1510 368 q 1583 249 1567 297 q 1600 146 1600 201 q 1553 -56 1600 35 q 1418 -211 1507 -146 q 1201 -312 1329 -276 q 911 -347 1074 -347 q 589 -308 738 -347 q 330 -191 440 -268 q 157 -1 219 -114 q 94 261 94 113 q 133 500 94 392 q 238 708 172 608 l 326 682 q 228 475 260 575 q 197 261 197 375 q 254 29 197 126 q 409 -131 311 -68 q 636 -225 507 -194 q 911 -256 765 -256 q 1148 -228 1040 -256 q 1333 -150 1256 -201 q 1454 -24 1411 -99 q 1497 146 1497 50 q 1461 276 1497 229 q 1367 322 1425 322 q 1259 265 1300 322 q 1211 115 1218 208 l 1211 0 l 1114 0 l 1114 611 l 910 611 q 738 586 815 611 q 606 518 661 561 q 519 416 550 475 q 489 289 489 357 q 528 147 489 197 q 626 78 567 96 q 607 219 599 147 q 665 353 615 299 q 801 407 715 407 q 938 353 889 407 q 986 219 986 300 q 966 128 986 171 q 910 55 946 86 q 824 6 874 24 q 714 -12 774 -12 q 591 10 650 -12 q 486 74 532 33 q 413 173 440 115 q 386 300 386 231 q 423 458 386 385 q 528 584 460 531 q 693 668 596 638 q 910 699 790 699 l 1374 699 m 790 322 q 740 310 763 322 q 703 278 718 299 q 678 233 688 258 q 668 179 669 207 q 670 122 667 150 q 685 69 674 93 q 717 65 701 65 q 771 75 742 65 q 826 104 800 85 q 868 152 851 124 q 885 219 885 181 q 862 293 885 264 q 790 322 839 322 z "},"ட":{"ha":922,"x_min":135,"x_max":906,"o":"m 232 699 l 232 88 l 906 88 l 906 0 l 135 0 l 135 699 l 232 699 z "},"ண":{"ha":2217,"x_min":74,"x_max":2188,"o":"m 631 710 q 818 683 726 710 q 993 596 910 657 q 1126 680 1054 650 q 1283 710 1199 710 q 1433 680 1363 710 q 1567 593 1504 650 q 1724 672 1635 644 q 1915 699 1813 699 l 2188 699 l 2188 611 l 2024 611 l 2024 0 l 1928 0 l 1928 611 q 1767 592 1840 611 q 1633 539 1693 572 q 1734 390 1699 468 q 1769 225 1769 313 q 1753 127 1769 171 q 1708 52 1738 83 q 1639 4 1679 21 q 1551 -12 1599 -12 q 1465 4 1504 -12 q 1396 52 1425 21 q 1351 127 1367 83 q 1335 225 1335 171 q 1376 397 1335 315 q 1497 543 1418 478 q 1392 602 1449 581 q 1283 624 1336 624 q 1169 603 1225 624 q 1064 546 1113 582 q 1181 388 1143 472 q 1219 225 1219 304 q 1203 127 1219 171 q 1159 52 1188 83 q 1090 4 1131 21 q 1003 -12 1050 -12 q 915 4 954 -12 q 846 52 875 21 q 801 127 817 83 q 785 225 785 171 q 824 395 785 315 q 928 542 863 475 q 790 601 865 579 q 631 624 714 624 q 447 598 531 624 q 303 528 364 572 q 210 422 243 483 q 176 289 176 361 q 216 147 176 197 q 314 78 256 96 q 294 219 286 147 q 353 353 303 299 q 489 407 403 407 q 625 353 576 407 q 674 219 674 300 q 653 127 674 169 q 595 53 632 85 q 509 5 558 22 q 401 -12 460 -12 q 276 10 336 -12 q 172 74 217 33 q 100 173 126 115 q 74 300 74 231 q 113 462 74 388 q 224 592 151 536 q 399 678 296 647 q 631 710 501 710 m 478 322 q 428 310 450 322 q 390 278 406 299 q 366 233 375 258 q 356 179 357 207 q 358 122 354 150 q 374 69 363 93 q 389 66 381 67 q 404 65 397 65 q 460 76 431 65 q 515 106 490 86 q 556 153 540 125 q 572 219 572 182 q 548 293 572 264 q 478 322 524 322 m 997 494 q 915 371 946 439 q 883 225 883 303 q 918 113 883 154 q 1003 71 953 71 q 1086 113 1051 71 q 1121 225 1121 154 q 1088 372 1121 304 q 997 494 1056 440 m 1564 493 q 1465 364 1497 432 q 1433 225 1433 296 q 1468 113 1433 154 q 1551 71 1503 71 q 1636 113 1601 71 q 1671 225 1671 154 q 1642 368 1671 300 q 1564 493 1614 436 z "},"த":{"ha":1063,"x_min":54,"x_max":1011,"o":"m 328 386 l 574 386 l 574 611 l 328 611 l 328 386 m 267 318 q 190 297 214 318 q 165 239 165 276 q 185 172 165 203 q 239 118 204 140 q 319 83 274 96 q 417 71 364 71 q 537 113 500 71 q 574 240 574 154 l 574 318 l 267 318 m 874 699 l 874 611 l 671 611 l 671 386 l 736 386 q 938 322 865 386 q 1011 143 1011 257 q 977 -8 1011 60 q 879 -124 943 -76 q 724 -199 815 -172 q 518 -225 632 -225 l 226 -225 q 170 -241 190 -225 q 150 -289 150 -257 q 169 -349 150 -322 q 218 -400 189 -376 l 150 -442 q 84 -368 114 -411 q 54 -272 54 -325 q 94 -175 54 -212 q 213 -137 135 -137 l 518 -137 q 690 -116 617 -137 q 813 -57 764 -94 q 888 31 863 -19 q 913 142 913 82 q 866 274 913 229 q 736 318 819 318 l 671 318 l 671 238 q 610 51 671 114 q 424 -12 550 -12 q 280 9 346 -12 q 165 67 214 31 q 90 151 117 104 q 63 250 63 199 q 106 351 63 315 q 219 386 149 386 l 236 386 l 236 699 l 874 699 z "},"ந":{"ha":1085,"x_min":89,"x_max":1015,"o":"m 789 699 l 789 611 l 624 611 l 624 283 q 694 376 647 346 q 801 407 740 407 q 888 388 849 407 q 955 333 926 368 q 999 249 983 297 q 1015 146 1015 201 q 982 -3 1015 65 q 886 -120 949 -71 q 734 -197 824 -169 q 532 -225 644 -225 l 261 -225 q 185 -290 185 -225 q 203 -349 185 -322 q 251 -400 221 -376 l 182 -442 q 116 -365 143 -407 q 89 -272 89 -322 q 126 -177 89 -217 q 247 -137 164 -137 l 532 -137 q 699 -115 628 -137 q 819 -54 771 -93 q 891 36 867 -15 q 915 146 915 88 q 876 276 915 229 q 783 322 838 322 q 721 306 750 322 q 670 260 692 289 q 636 190 649 231 q 624 103 624 150 l 624 0 l 526 0 l 526 611 l 232 611 l 232 0 l 135 0 l 135 699 l 789 699 z "},"ன":{"ha":1663,"x_min":74,"x_max":1635,"o":"m 631 710 q 841 676 751 710 q 1008 588 931 643 q 1167 668 1076 638 q 1363 699 1258 699 l 1635 699 l 1635 611 l 1472 611 l 1472 0 l 1375 0 l 1375 611 q 1212 591 1288 611 q 1078 535 1136 571 q 1181 388 1144 467 q 1217 225 1217 310 q 1201 127 1217 171 q 1156 52 1185 83 q 1088 4 1128 21 q 1000 -12 1047 -12 q 912 4 951 -12 q 843 52 872 21 q 798 127 814 83 q 782 225 782 171 q 823 396 782 318 q 935 536 864 474 q 802 599 872 574 q 631 624 732 624 q 451 598 533 624 q 307 528 368 572 q 211 422 246 483 q 176 289 176 361 q 215 147 176 197 q 314 78 254 96 q 294 219 286 147 q 353 353 303 299 q 489 407 403 407 q 625 353 576 407 q 674 219 674 300 q 653 128 674 171 q 597 55 633 86 q 511 6 561 24 q 401 -12 461 -12 q 278 10 338 -12 q 174 74 219 33 q 101 173 128 115 q 74 300 74 231 q 113 462 74 388 q 224 592 151 536 q 399 678 296 647 q 631 710 501 710 m 1007 492 q 913 369 944 436 q 881 225 881 301 q 915 113 881 154 q 1000 71 950 71 q 1084 113 1049 71 q 1119 225 1119 156 q 1089 371 1119 304 q 1007 492 1058 438 m 478 322 q 428 310 450 322 q 390 278 406 299 q 366 233 375 258 q 356 179 357 207 q 358 122 354 150 q 372 69 361 93 q 388 66 379 67 q 404 65 397 65 q 460 76 431 65 q 515 106 490 86 q 556 153 540 125 q 572 219 572 182 q 549 293 572 264 q 478 322 526 322 z "},"ப":{"ha":1039,"x_min":135,"x_max":904,"o":"m 232 699 l 232 88 l 808 88 l 808 699 l 904 699 l 904 0 l 135 0 l 135 699 l 232 699 z "},"ம":{"ha":1154,"x_min":135,"x_max":1075,"o":"m 232 699 l 232 88 l 561 88 l 561 511 q 610 660 561 611 q 742 710 658 710 q 867 676 807 710 q 974 585 928 642 q 1047 457 1019 529 q 1075 307 1075 385 q 989 80 1075 160 q 754 0 903 0 l 135 0 l 135 699 l 232 699 m 746 624 q 681 595 707 624 q 656 511 656 567 l 656 88 l 754 88 q 913 140 854 88 q 972 307 972 193 q 953 422 972 365 q 903 523 935 478 q 831 596 872 568 q 746 624 790 624 z "},"ய":{"ha":1325,"x_min":126,"x_max":1189,"o":"m 224 699 l 224 251 q 260 117 224 160 q 375 75 297 75 q 437 87 407 75 q 490 122 467 99 q 530 181 514 146 q 550 265 546 217 l 550 699 l 647 699 l 647 88 l 1093 88 l 1093 699 l 1189 699 l 1189 0 l 550 0 l 550 131 q 477 28 525 68 q 350 -12 429 -12 q 186 49 246 -12 q 126 233 126 110 l 126 699 l 224 699 z "},"ர":{"ha":815,"x_min":135,"x_max":786,"o":"m 786 699 l 786 611 l 624 611 l 624 -76 l 293 -347 l 203 -299 l 526 -29 l 526 611 l 232 611 l 232 0 l 135 0 l 135 699 l 786 699 z "},"ற":{"ha":1118,"x_min":110,"x_max":1039,"o":"m 353 710 q 468 671 425 710 q 529 567 511 632 q 611 676 558 642 q 742 710 664 710 q 860 679 806 710 q 953 593 914 649 q 1016 462 993 538 q 1039 296 1039 386 q 903 -90 1039 44 q 517 -225 767 -225 l 282 -225 q 226 -241 246 -225 q 206 -289 206 -257 q 226 -349 206 -322 q 275 -400 246 -376 l 207 -442 q 140 -368 169 -411 q 110 -272 110 -325 q 148 -177 110 -217 q 268 -137 186 -137 l 517 -137 q 708 -104 629 -137 q 838 -13 788 -71 q 913 124 889 44 q 936 294 936 203 q 921 431 936 369 q 878 534 906 492 q 816 600 851 576 q 742 624 781 624 q 639 573 676 624 q 601 425 601 522 l 601 0 l 506 0 l 506 424 q 469 572 506 522 q 365 624 433 621 q 260 573 297 624 q 224 425 224 522 l 224 0 l 126 0 l 126 425 q 185 638 126 567 q 353 710 243 710 z "},"ல":{"ha":1389,"x_min":74,"x_max":1310,"o":"m 574 711 q 837 613 754 711 q 919 324 919 514 l 919 199 q 943 102 919 129 q 1013 75 967 75 q 1082 99 1047 75 q 1144 165 1117 124 q 1190 261 1172 207 q 1208 374 1208 315 q 1171 537 1208 457 q 1063 688 1133 617 l 1182 710 q 1277 548 1244 635 q 1310 374 1310 461 q 1286 231 1310 300 q 1222 107 1263 161 q 1126 20 1181 53 q 1013 -12 1072 -12 q 871 43 919 -12 q 822 199 822 99 l 822 324 q 763 553 822 482 q 574 624 703 624 q 419 598 492 624 q 293 527 347 572 q 208 421 239 482 q 176 289 176 360 q 215 147 176 197 q 314 78 254 96 q 294 219 286 147 q 313 293 299 258 q 353 353 328 328 q 412 392 378 378 q 489 407 446 407 q 625 353 576 407 q 674 219 674 300 q 653 128 674 171 q 597 55 633 86 q 511 6 561 24 q 401 -12 461 -12 q 278 10 338 -12 q 174 74 219 33 q 101 173 128 115 q 74 300 74 231 q 112 461 74 386 q 217 592 150 536 q 376 679 285 647 q 574 711 467 711 m 478 322 q 428 310 450 322 q 390 278 406 299 q 366 233 375 258 q 356 179 357 207 q 358 122 354 150 q 372 69 361 93 q 388 66 379 67 q 404 65 397 65 q 458 75 429 65 q 513 104 488 85 q 556 152 539 124 q 572 219 572 181 q 549 293 572 264 q 478 322 526 322 z "},"ள":{"ha":1513,"x_min":74,"x_max":1483,"o":"m 497 710 q 617 691 563 710 q 713 640 671 672 q 785 562 756 607 q 833 464 815 517 l 833 699 l 1483 699 l 1483 611 l 1318 611 l 1318 0 l 1222 0 l 1222 611 l 922 611 l 922 0 l 833 0 l 833 236 q 810 397 833 325 q 743 519 786 468 q 640 597 700 569 q 510 624 581 624 q 378 597 439 624 q 272 525 317 571 q 202 418 228 479 q 176 289 176 357 q 215 147 176 197 q 314 78 254 96 q 294 219 286 147 q 353 353 303 299 q 489 407 403 407 q 625 353 576 407 q 674 219 674 300 q 653 128 674 171 q 597 55 633 86 q 511 6 561 24 q 401 -12 461 -12 q 278 10 338 -12 q 174 74 219 33 q 101 174 128 115 q 74 303 74 232 q 108 467 74 392 q 199 596 142 542 q 334 680 257 650 q 497 710 411 710 m 478 322 q 428 310 450 322 q 390 278 406 299 q 366 233 375 258 q 356 179 357 207 q 358 122 354 150 q 372 69 361 93 q 388 66 379 67 q 404 65 397 65 q 458 75 429 65 q 513 104 488 85 q 556 152 539 124 q 572 219 572 181 q 549 293 572 264 q 478 322 526 322 z "},"ழ":{"ha":1154,"x_min":126,"x_max":1075,"o":"m 232 699 l 232 88 l 561 88 l 561 511 q 610 660 561 611 q 742 710 658 710 q 867 676 807 710 q 974 585 928 642 q 1047 457 1019 529 q 1075 307 1075 385 q 989 80 1075 160 q 754 0 903 0 l 654 0 l 654 -22 q 661 -76 654 -53 q 685 -113 668 -99 q 730 -135 701 -128 q 801 -142 758 -142 l 979 -142 l 979 -229 l 796 -229 q 752 -226 772 -229 q 714 -219 732 -224 q 556 -424 639 -362 q 365 -485 474 -485 q 270 -469 314 -485 q 194 -427 226 -454 q 144 -362 163 -400 q 126 -282 126 -325 q 141 -199 126 -237 q 175 -131 156 -160 l 278 -144 q 242 -214 256 -179 q 229 -286 229 -249 q 269 -371 229 -344 q 365 -397 308 -397 q 495 -349 429 -397 q 628 -181 561 -300 q 576 -112 592 -153 q 561 -22 561 -71 l 561 0 l 135 0 l 135 699 l 232 699 m 746 624 q 681 595 707 624 q 656 511 656 567 l 656 88 l 754 88 q 913 140 854 88 q 972 307 972 193 q 953 422 972 365 q 903 523 935 478 q 831 596 872 568 q 746 624 790 624 z "},"வ":{"ha":1490,"x_min":74,"x_max":1356,"o":"m 536 710 q 717 678 638 710 q 850 592 796 646 q 933 467 904 538 q 961 319 961 396 q 949 197 961 253 q 915 88 938 140 l 1258 88 l 1258 699 l 1356 699 l 1356 0 l 874 0 l 793 46 q 842 173 825 106 q 858 308 858 240 q 838 428 858 371 q 776 528 817 485 q 675 598 736 572 q 533 624 614 624 q 394 599 460 624 q 281 529 329 574 q 204 424 232 485 q 176 289 176 363 q 216 147 176 199 q 314 78 256 96 q 294 219 286 147 q 353 353 303 299 q 489 407 403 407 q 625 353 576 407 q 674 219 674 300 q 653 128 674 171 q 597 55 633 86 q 511 6 561 24 q 401 -12 461 -12 q 278 10 338 -12 q 174 74 219 33 q 101 173 128 115 q 74 300 74 231 q 109 467 74 392 q 207 597 144 543 q 353 681 269 651 q 536 710 438 710 m 478 322 q 428 310 450 322 q 390 278 406 299 q 366 233 375 258 q 356 179 357 207 q 358 122 354 150 q 372 69 361 93 q 388 66 379 67 q 404 65 397 65 q 458 75 429 65 q 513 104 488 85 q 556 152 539 124 q 572 219 572 181 q 549 293 572 264 q 478 322 526 322 z "},"ஶ":{"ha":1507,"x_min":126,"x_max":1381,"o":"m 224 699 l 224 271 q 235 179 224 217 q 267 119 247 142 q 315 85 288 96 q 375 75 343 75 q 436 85 408 75 q 485 119 464 96 q 517 179 506 142 q 529 271 529 217 l 529 699 l 1381 699 l 1381 271 q 1362 149 1381 201 q 1310 60 1343 96 q 1231 6 1276 24 q 1131 -12 1185 -12 q 1031 6 1076 -12 q 953 60 986 24 q 901 149 919 96 q 882 271 882 201 l 882 611 l 625 611 l 625 271 q 606 149 625 201 q 554 60 588 96 q 475 6 521 24 q 375 -12 429 -12 q 194 60 263 -12 q 126 271 126 132 l 126 699 l 224 699 m 979 271 q 991 179 979 217 q 1023 119 1003 142 q 1071 85 1043 96 q 1131 75 1099 75 q 1192 85 1164 75 q 1240 119 1219 96 q 1272 179 1260 142 q 1283 271 1283 217 l 1283 611 l 979 611 l 979 271 z "},"ஷ":{"ha":1893,"x_min":74,"x_max":1769,"o":"m 535 710 q 717 678 638 710 q 850 592 796 646 q 933 467 904 538 q 961 319 961 396 q 949 197 961 253 q 915 88 938 140 l 1272 88 l 1317 271 q 1218 292 1264 275 q 1139 335 1172 308 q 1086 401 1106 363 q 1067 485 1067 439 q 1086 578 1067 536 q 1139 649 1106 619 q 1215 694 1172 678 q 1306 710 1258 710 q 1374 698 1343 710 q 1427 664 1404 686 q 1463 612 1450 642 q 1475 547 1475 582 q 1474 522 1475 535 q 1469 496 1472 508 l 1436 350 q 1569 418 1507 369 q 1694 542 1631 467 l 1769 507 l 1769 0 l 1354 0 l 1285 -303 l 1182 -303 l 1253 0 l 872 0 l 793 46 q 842 173 825 106 q 858 308 858 240 q 838 428 858 371 q 776 528 817 485 q 675 598 736 572 q 533 624 614 624 q 394 599 460 624 q 281 529 329 574 q 204 424 232 485 q 176 289 176 363 q 215 147 176 197 q 314 78 254 96 q 294 219 286 147 q 353 353 303 299 q 489 407 403 407 q 625 353 576 407 q 674 219 674 300 q 653 128 674 171 q 597 55 633 86 q 511 6 561 24 q 401 -12 461 -12 q 278 10 338 -12 q 174 74 219 33 q 101 173 128 115 q 74 300 74 231 q 109 467 74 392 q 207 597 144 543 q 353 681 269 651 q 535 710 438 710 m 1375 88 l 1674 88 l 1674 422 q 1553 324 1617 363 q 1418 276 1489 286 l 1375 88 m 1303 624 q 1251 613 1275 624 q 1209 582 1228 601 q 1180 535 1190 563 q 1169 476 1169 508 q 1212 380 1169 418 q 1339 339 1254 342 l 1379 511 q 1383 547 1383 532 q 1363 603 1382 583 q 1303 624 1343 624 m 478 322 q 424 308 447 322 q 385 272 400 294 q 361 220 369 249 q 353 161 353 192 q 357 113 353 136 q 372 69 361 89 q 404 65 389 65 q 458 75 429 65 q 513 104 488 85 q 556 152 539 124 q 572 219 572 181 q 549 293 572 264 q 478 322 526 322 z "},"ஸ":{"ha":1779,"x_min":74,"x_max":1701,"o":"m 492 710 q 616 691 561 710 q 712 640 671 672 q 781 564 753 608 q 826 469 810 519 q 903 650 842 590 q 1065 710 964 710 q 1245 634 1186 710 q 1304 424 1304 558 l 1304 199 q 1329 102 1304 129 q 1403 75 1354 75 q 1473 99 1438 75 q 1537 165 1508 124 q 1583 261 1565 207 q 1601 374 1601 315 q 1564 537 1601 457 q 1456 688 1526 617 l 1572 710 q 1668 548 1635 635 q 1701 374 1701 461 q 1677 231 1701 300 q 1613 107 1653 161 q 1517 20 1572 53 q 1403 -12 1463 -12 q 1259 41 1311 -12 q 1207 199 1207 94 l 1207 424 q 1169 574 1207 525 q 1065 624 1131 624 q 963 574 1001 624 q 924 425 924 525 l 924 0 l 826 0 l 826 231 q 801 398 826 325 q 733 521 776 471 q 631 597 689 571 q 504 624 572 624 q 370 597 431 624 q 266 524 310 569 q 198 418 222 478 q 174 293 174 358 q 213 147 174 199 q 310 78 253 96 q 290 219 283 147 q 349 353 299 299 q 486 407 400 407 q 622 353 574 407 q 671 219 671 300 q 650 128 671 171 q 592 55 629 86 q 506 6 556 24 q 399 -12 457 -12 q 276 10 335 -12 q 173 75 218 33 q 101 175 128 117 q 74 306 74 233 q 106 467 74 393 q 195 596 139 542 q 328 680 251 650 q 492 710 404 710 m 475 322 q 425 310 447 322 q 388 278 403 299 q 363 233 372 258 q 353 179 354 207 q 369 69 349 118 q 401 65 386 65 q 456 75 426 65 q 510 104 485 85 q 551 152 535 124 q 568 219 568 181 q 544 293 568 264 q 475 322 521 322 z "},"ஹ":{"ha":2257,"x_min":75,"x_max":2179,"o":"m 1493 710 q 1608 671 1565 710 q 1669 567 1651 632 q 1751 676 1699 642 q 1882 710 1804 710 q 2000 679 1946 710 q 2094 593 2054 649 q 2156 462 2133 538 q 2179 296 2179 386 q 2044 -90 2179 44 q 1657 -225 1908 -225 l 246 -225 q 191 -241 211 -225 q 171 -289 171 -257 q 190 -349 171 -322 q 240 -400 210 -376 l 172 -442 q 105 -368 135 -411 q 75 -272 75 -325 q 113 -177 75 -217 q 232 -137 150 -137 l 1657 -137 q 1849 -104 1769 -137 q 1978 -13 1928 -71 q 2053 124 2029 44 q 2076 294 2076 203 q 2060 431 2076 369 q 2018 534 2044 492 q 1956 600 1992 576 q 1882 624 1921 624 q 1779 573 1817 624 q 1742 425 1742 522 l 1742 0 l 1646 0 l 1646 424 q 1610 572 1646 522 q 1506 624 1574 621 q 1401 573 1438 624 q 1364 425 1364 522 l 1364 0 l 881 0 l 801 46 q 849 173 833 106 q 865 308 865 240 q 845 428 865 371 q 784 528 825 485 q 683 598 743 572 q 542 624 622 624 q 403 599 468 624 q 289 529 338 574 q 213 424 240 485 q 185 289 185 363 q 224 147 185 199 q 322 78 264 96 q 303 219 292 147 q 322 293 307 258 q 361 353 336 328 q 420 392 386 378 q 497 407 454 407 q 633 353 583 407 q 682 219 682 300 q 662 128 682 171 q 605 55 642 86 q 518 6 568 24 q 408 -12 468 -12 q 285 10 344 -12 q 181 74 226 33 q 109 173 136 115 q 82 300 82 231 q 117 467 82 392 q 215 597 153 543 q 362 681 278 651 q 543 710 446 710 q 725 678 646 710 q 858 592 804 646 q 941 467 913 538 q 969 319 969 396 q 958 197 969 253 q 924 88 946 140 l 1267 88 l 1267 425 q 1325 638 1267 567 q 1493 710 1383 710 m 486 322 q 436 310 458 322 q 399 278 414 299 q 374 233 383 258 q 364 179 365 207 q 379 69 360 119 q 396 66 386 67 q 413 65 406 65 q 467 75 438 65 q 521 104 496 85 q 563 152 546 124 q 579 219 579 181 q 556 293 579 264 q 486 322 533 322 z "},"ா":{"ha":815,"x_min":135,"x_max":786,"o":"m 786 699 l 786 611 l 624 611 l 624 0 l 526 0 l 526 611 l 232 611 l 232 0 l 135 0 l 135 699 l 786 699 z "},"ி":{"ha":358,"x_min":-526,"x_max":224,"o":"m -189 1090 q 115 962 7 1090 q 224 583 224 833 l 224 0 l 128 0 l 128 583 q 48 898 128 797 q -182 999 -32 999 q -282 985 -236 999 q -360 946 -328 971 q -410 886 -392 921 q -428 811 -428 851 q -383 683 -428 740 l -418 683 q -497 751 -468 706 q -526 851 -526 796 q -503 945 -526 901 q -437 1021 -481 989 q -331 1072 -393 1053 q -189 1090 -268 1090 z "},"ீ":{"ha":629,"x_min":63,"x_max":582,"o":"m 336 1129 q 436 1113 390 1129 q 514 1071 482 1097 q 564 1009 546 1044 q 582 936 582 974 q 535 826 582 867 q 414 786 489 786 q 302 826 342 786 q 263 921 263 867 q 278 990 263 957 q 321 1050 294 1022 q 257 1032 288 1046 q 203 995 226 1018 q 167 941 181 972 q 154 874 154 910 q 185 774 154 817 q 274 697 215 731 l 228 689 q 108 768 153 713 q 63 897 63 824 q 83 988 63 946 q 141 1062 104 1031 q 228 1111 178 1093 q 336 1129 278 1129 m 371 1051 q 340 996 351 1024 q 328 939 328 968 q 349 881 328 903 q 407 858 371 858 q 466 883 444 858 q 488 940 488 907 q 454 1013 488 983 q 371 1051 421 1042 z "},"ு":{"ha":588,"x_min":-174,"x_max":576,"o":"m 368 292 q 278 310 317 292 q 215 358 240 328 q 176 428 189 389 q 163 508 163 467 l 163 611 l -174 611 l -174 699 l 333 699 q 509 647 442 699 q 576 497 576 594 q 562 415 576 453 q 520 351 547 378 q 454 308 493 324 q 368 292 415 292 m 254 611 l 254 501 q 283 403 254 438 q 363 369 313 369 q 444 406 411 369 q 476 494 476 442 q 333 611 476 611 l 254 611 z "},"ூ":{"ha":979,"x_min":-237,"x_max":924,"o":"m 556 914 q 698 885 631 914 q 815 803 765 856 q 894 675 865 750 q 924 508 924 600 q 895 326 924 410 q 811 181 867 242 q 672 84 756 119 q 478 49 588 49 q 215 123 332 49 q 31 342 97 197 l 96 390 q 253 194 158 251 q 474 138 349 138 q 624 165 558 138 q 733 240 689 192 q 801 357 778 289 q 824 508 824 425 q 803 642 824 583 q 745 742 782 701 q 660 805 708 783 q 556 826 611 826 q 429 792 483 826 q 347 699 375 757 l 426 699 q 601 647 536 699 q 667 503 667 596 q 653 424 667 461 q 612 359 639 386 q 546 316 585 332 q 458 300 507 300 q 369 318 407 300 q 305 367 331 336 q 266 436 279 397 q 253 517 253 475 l 253 611 l -237 611 l -237 699 l 260 699 q 365 856 286 797 q 556 914 443 914 m 344 510 q 374 412 344 446 q 453 378 404 378 q 534 414 501 378 q 567 503 567 450 q 426 615 567 615 l 344 615 l 344 510 z "},"ெ":{"ha":1093,"x_min":81,"x_max":958,"o":"m 660 1090 q 881 1005 803 1090 q 958 757 958 919 l 958 0 l 861 0 l 861 757 q 806 944 861 889 q 660 999 751 999 q 494 953 578 999 q 340 829 410 908 q 227 643 271 750 q 183 414 183 536 q 197 283 183 339 q 234 185 211 226 q 286 118 257 144 q 347 79 315 92 q 329 148 333 113 q 329 219 325 183 q 387 353 336 299 q 524 407 438 407 q 660 353 611 407 q 708 219 708 300 q 688 127 708 169 q 632 53 668 85 q 545 5 596 22 q 435 -12 494 -12 q 306 15 369 -12 q 193 99 243 43 q 112 238 143 154 q 81 432 81 321 q 127 687 81 567 q 253 897 174 807 q 438 1038 332 986 q 660 1090 543 1090 m 513 322 q 463 310 485 322 q 425 278 440 299 q 401 233 410 258 q 390 179 392 207 q 407 69 386 118 q 439 65 421 65 q 493 75 464 65 q 547 104 522 85 q 589 152 572 124 q 606 219 606 181 q 581 293 606 264 q 513 322 557 322 z "},"ே":{"ha":882,"x_min":71,"x_max":818,"o":"m 538 1090 q 651 1072 600 1090 q 740 1024 703 1054 q 797 953 776 993 q 818 868 818 913 q 803 797 818 828 q 764 743 789 765 q 704 709 739 721 q 629 697 669 697 q 556 710 589 697 q 500 744 524 722 q 464 794 476 765 q 451 856 451 822 q 472 943 451 903 q 525 1017 492 983 q 403 975 465 1011 q 289 876 340 939 q 205 728 238 814 q 172 538 172 643 q 198 352 172 431 q 263 219 224 274 q 352 131 303 164 q 450 82 401 97 q 433 154 436 118 q 433 226 429 190 q 494 359 443 307 q 633 411 546 411 q 709 397 675 411 q 767 356 743 382 q 805 294 792 329 q 818 219 818 260 q 797 127 818 169 q 740 53 776 85 q 653 5 703 22 q 544 -12 603 -12 q 383 22 467 -12 q 229 126 299 57 q 115 299 160 196 q 71 538 71 401 q 110 761 71 660 q 214 935 149 863 q 363 1049 279 1008 q 538 1090 447 1090 m 492 183 q 507 71 488 121 q 526 67 515 68 q 549 65 538 65 q 605 76 575 65 q 659 106 635 86 q 699 153 683 125 q 715 219 715 182 q 690 297 715 267 q 619 326 664 326 q 567 314 590 326 q 528 282 544 301 q 503 236 513 263 q 492 183 493 210 m 721 869 q 677 966 721 929 q 572 1013 633 1003 q 533 945 547 982 q 519 875 519 908 q 548 797 519 826 q 621 767 576 767 q 692 794 664 767 q 721 869 721 821 z "},"ை":{"ha":1644,"x_min":74,"x_max":1549,"o":"m 601 710 q 787 683 699 710 q 949 610 875 657 q 1072 683 1004 656 q 1217 710 1139 710 q 1350 683 1289 710 q 1456 608 1411 656 q 1524 494 1500 560 q 1549 350 1549 428 q 1510 163 1549 258 q 1389 -12 1472 67 l 1303 22 q 1418 190 1386 108 q 1450 351 1450 271 q 1433 458 1450 408 q 1386 546 1417 508 q 1313 605 1356 583 q 1218 626 1269 626 q 1114 607 1164 626 q 1019 556 1064 588 q 1138 404 1094 489 q 1182 224 1182 319 q 1167 128 1182 171 q 1124 53 1151 85 q 1058 5 1096 22 q 974 -12 1019 -12 q 890 5 928 -12 q 824 53 851 22 q 781 128 796 85 q 765 224 765 171 q 797 395 765 311 q 888 549 829 479 q 753 604 826 585 q 601 624 681 624 q 434 598 513 624 q 297 528 356 572 q 205 422 239 483 q 171 289 171 361 q 210 147 171 197 q 308 78 249 96 q 282 182 282 126 q 296 271 282 229 q 336 342 310 313 q 398 390 363 372 q 478 407 433 407 q 549 392 517 407 q 606 353 582 378 q 642 294 629 328 q 654 219 654 260 q 635 128 654 171 q 583 55 617 86 q 501 6 549 24 q 396 -12 454 -12 q 274 10 332 -12 q 171 74 215 33 q 100 173 126 115 q 74 300 74 231 q 112 462 74 388 q 219 592 150 536 q 386 678 289 647 q 601 710 483 710 m 1090 224 q 1056 374 1090 304 q 958 497 1021 444 q 883 371 911 442 q 856 224 856 300 q 890 113 856 153 q 972 72 924 72 q 1056 113 1021 72 q 1090 224 1090 153 m 474 322 q 419 308 443 322 q 380 272 396 294 q 356 220 364 249 q 347 161 347 192 q 351 113 347 136 q 367 69 356 89 q 383 66 374 67 q 399 65 392 65 q 454 76 425 65 q 508 106 483 86 q 549 153 533 125 q 565 219 565 182 q 543 293 565 264 q 474 322 521 322 z "},"ௌ":{"ha":3246,"x_min":81,"x_max":3217,"o":"m 1215 586 q 1350 642 1274 631 l 1361 546 q 1274 511 1313 542 l 1215 586 m 1108 400 q 1128 474 1114 439 q 1165 536 1143 508 l 1238 478 q 1215 437 1225 458 q 1203 392 1206 415 l 1108 400 m 1421 640 q 1556 585 1500 629 l 1499 510 q 1457 534 1479 525 q 1411 546 1435 543 l 1421 640 m 1607 535 q 1644 471 1629 506 q 1663 399 1658 436 l 1569 388 q 1556 434 1565 414 q 1532 474 1547 454 l 1607 535 m 1554 142 q 1491 106 1526 121 q 1419 88 1456 92 l 1408 181 q 1496 217 1458 188 l 1554 142 m 1663 328 q 1643 255 1658 289 q 1606 193 1628 221 l 1531 250 q 1568 339 1561 290 l 1663 328 m 1164 194 q 1108 331 1119 253 l 1203 342 q 1236 253 1208 294 l 1164 194 m 1349 88 q 1276 108 1310 93 q 1214 144 1242 122 l 1271 217 q 1360 182 1310 188 l 1349 88 m 660 1090 q 881 1005 803 1090 q 958 757 958 919 l 958 0 l 861 0 l 861 757 q 806 944 861 889 q 660 999 751 999 q 494 953 578 999 q 340 829 410 908 q 227 643 271 750 q 183 414 183 536 q 197 283 183 339 q 234 185 211 226 q 286 118 257 144 q 347 79 315 92 q 329 148 333 113 q 329 219 325 183 q 387 353 336 299 q 524 407 438 407 q 660 353 611 407 q 708 219 708 300 q 688 127 708 169 q 632 53 668 85 q 545 5 596 22 q 435 -12 494 -12 q 306 15 369 -12 q 193 99 243 43 q 112 238 143 154 q 81 432 81 321 q 127 687 81 567 q 253 897 174 807 q 438 1038 332 986 q 660 1090 543 1090 m 513 322 q 463 310 485 322 q 425 278 440 299 q 401 233 410 258 q 390 179 392 207 q 407 69 386 118 q 439 65 421 65 q 493 75 464 65 q 547 104 522 85 q 589 152 572 124 q 606 219 606 181 q 581 293 606 264 q 513 322 557 322 m 2231 710 q 2350 691 2296 710 q 2447 640 2404 672 q 2519 562 2489 607 q 2567 464 2549 517 l 2567 699 l 3217 699 l 3217 611 l 3051 611 l 3051 0 l 2956 0 l 2956 611 l 2656 611 l 2656 0 l 2567 0 l 2567 236 q 2543 397 2567 325 q 2476 519 2519 468 q 2374 597 2433 569 q 2243 624 2314 624 q 2111 597 2172 624 q 2006 525 2050 571 q 1935 418 1961 479 q 1910 289 1910 357 q 1949 147 1910 197 q 2047 78 1988 96 q 2028 219 2019 147 q 2086 353 2036 299 q 2222 407 2136 407 q 2358 353 2310 407 q 2407 219 2407 300 q 2387 128 2407 171 q 2331 55 2367 86 q 2244 6 2294 24 q 2135 -12 2194 -12 q 2012 10 2071 -12 q 1907 74 1953 33 q 1834 174 1861 115 q 1807 303 1807 232 q 1841 467 1807 392 q 1933 596 1875 542 q 2067 680 1990 650 q 2231 710 2144 710 m 2211 322 q 2161 310 2183 322 q 2124 278 2139 299 q 2099 233 2108 258 q 2089 179 2090 207 q 2091 122 2088 150 q 2106 69 2094 93 q 2122 66 2113 67 q 2138 65 2131 65 q 2192 75 2163 65 q 2247 104 2221 85 q 2289 152 2272 124 q 2306 219 2306 181 q 2283 293 2306 264 q 2211 322 2260 322 z "},"ௗ":{"ha":1513,"x_min":74,"x_max":1483,"o":"m 497 710 q 617 691 563 710 q 713 640 671 672 q 785 562 756 607 q 833 464 815 517 l 833 699 l 1483 699 l 1483 611 l 1318 611 l 1318 0 l 1222 0 l 1222 611 l 922 611 l 922 0 l 833 0 l 833 236 q 810 397 833 325 q 743 519 786 468 q 640 597 700 569 q 510 624 581 624 q 378 597 439 624 q 272 525 317 571 q 202 418 228 479 q 176 289 176 357 q 215 147 176 197 q 314 78 254 96 q 294 219 286 147 q 353 353 303 299 q 489 407 403 407 q 625 353 576 407 q 674 219 674 300 q 653 128 674 171 q 597 55 633 86 q 511 6 561 24 q 401 -12 461 -12 q 278 10 338 -12 q 174 74 219 33 q 101 174 128 115 q 74 303 74 232 q 108 467 74 392 q 199 596 142 542 q 334 680 257 650 q 497 710 411 710 m 478 322 q 428 310 450 322 q 390 278 406 299 q 366 233 375 258 q 356 179 357 207 q 358 122 354 150 q 372 69 361 93 q 388 66 379 67 q 404 65 397 65 q 458 75 429 65 q 513 104 488 85 q 556 152 539 124 q 572 219 572 181 q 549 293 572 264 q 478 322 526 322 z "},"ொ":{"ha":2535,"x_min":81,"x_max":2507,"o":"m 1224 586 q 1358 642 1282 631 l 1369 546 q 1282 511 1321 542 l 1224 586 m 1118 400 q 1137 474 1122 439 q 1174 536 1151 508 l 1247 478 q 1211 392 1219 438 l 1118 400 m 1431 640 q 1564 585 1508 629 l 1508 510 q 1466 534 1489 525 q 1419 546 1443 543 l 1431 640 m 1615 535 q 1652 471 1638 506 q 1672 399 1667 436 l 1578 388 q 1565 434 1574 414 q 1542 474 1556 454 l 1615 535 m 1563 142 q 1500 106 1535 121 q 1429 88 1465 92 l 1417 181 q 1506 217 1465 186 l 1563 142 m 1672 328 q 1651 255 1667 289 q 1614 193 1636 221 l 1539 250 q 1576 339 1569 288 l 1672 328 m 1172 194 q 1118 331 1126 253 l 1211 342 q 1246 253 1217 294 l 1172 194 m 1357 88 q 1285 108 1319 93 q 1222 144 1250 122 l 1281 217 q 1368 182 1318 189 l 1357 88 m 660 1090 q 881 1005 803 1090 q 958 757 958 919 l 958 0 l 861 0 l 861 757 q 806 944 861 889 q 660 999 751 999 q 494 953 578 999 q 340 829 410 908 q 227 643 271 750 q 183 414 183 536 q 197 283 183 339 q 234 185 211 226 q 286 118 257 144 q 347 79 315 92 q 329 148 333 113 q 329 219 325 183 q 387 353 336 299 q 524 407 438 407 q 660 353 611 407 q 708 219 708 300 q 688 127 708 169 q 632 53 668 85 q 545 5 596 22 q 435 -12 494 -12 q 306 15 369 -12 q 193 99 243 43 q 112 238 143 154 q 81 432 81 321 q 127 687 81 567 q 253 897 174 807 q 438 1038 332 986 q 660 1090 543 1090 m 513 322 q 463 310 485 322 q 425 278 440 299 q 401 233 410 258 q 390 179 392 207 q 407 69 386 118 q 439 65 421 65 q 493 75 464 65 q 547 104 522 85 q 589 152 572 124 q 606 219 606 181 q 581 293 606 264 q 513 322 557 322 m 2507 699 l 2507 611 l 2344 611 l 2344 0 l 2247 0 l 2247 611 l 1953 611 l 1953 0 l 1856 0 l 1856 699 l 2507 699 z "},"ோ":{"ha":2376,"x_min":71,"x_max":2347,"o":"m 1067 586 q 1203 642 1125 631 l 1214 546 q 1125 511 1164 542 l 1067 586 m 961 400 q 981 474 965 439 q 1018 536 996 508 l 1090 478 q 1067 437 1076 458 q 1054 392 1057 415 l 961 400 m 1274 640 q 1408 585 1350 629 l 1351 510 q 1309 534 1332 525 q 1263 546 1286 543 l 1274 640 m 1458 535 q 1497 471 1482 506 q 1514 399 1511 436 l 1421 388 q 1409 434 1418 414 q 1385 474 1400 454 l 1458 535 m 1406 142 q 1343 106 1378 121 q 1272 88 1308 92 l 1260 181 q 1347 217 1308 186 l 1406 142 m 1514 328 q 1457 193 1506 250 l 1383 250 q 1408 292 1399 269 q 1419 339 1417 315 l 1514 328 m 1015 194 q 980 257 994 222 q 961 331 965 292 l 1054 342 q 1066 295 1057 317 q 1089 253 1075 274 l 1015 194 m 1200 88 q 1127 108 1161 93 q 1065 144 1093 122 l 1124 217 q 1213 182 1161 188 l 1200 88 m 538 1090 q 651 1072 600 1090 q 740 1024 703 1054 q 797 953 776 993 q 818 868 818 913 q 803 797 818 828 q 764 743 789 765 q 704 709 739 721 q 629 697 669 697 q 556 710 589 697 q 500 744 524 722 q 464 794 476 765 q 451 856 451 822 q 472 943 451 903 q 525 1017 492 983 q 403 975 465 1011 q 289 876 340 939 q 205 728 238 814 q 172 538 172 643 q 198 352 172 431 q 263 219 224 274 q 352 131 303 164 q 450 82 401 97 q 433 154 436 118 q 433 226 429 190 q 494 359 443 307 q 633 411 546 411 q 709 397 675 411 q 767 356 743 382 q 805 294 792 329 q 818 219 818 260 q 797 127 818 169 q 740 53 776 85 q 653 5 703 22 q 544 -12 603 -12 q 383 22 467 -12 q 229 126 299 57 q 115 299 160 196 q 71 538 71 401 q 110 761 71 660 q 214 935 149 863 q 363 1049 279 1008 q 538 1090 447 1090 m 492 183 q 507 71 488 121 q 526 67 515 68 q 549 65 538 65 q 605 76 575 65 q 659 106 635 86 q 699 153 683 125 q 715 219 715 182 q 690 297 715 267 q 619 326 664 326 q 567 314 590 326 q 528 282 544 301 q 503 236 513 263 q 492 183 493 210 m 721 869 q 677 966 721 929 q 572 1013 633 1003 q 533 945 547 982 q 519 875 519 908 q 548 797 519 826 q 621 767 576 767 q 692 794 664 767 q 721 869 721 821 m 2347 699 l 2347 611 l 2185 611 l 2185 0 l 2088 0 l 2088 611 l 1793 611 l 1793 0 l 1696 0 l 1696 699 l 2347 699 z "}}}
